<svg width="375" height="429" viewBox="0 0 375 429" fill="none" xmlns="http://www.w3.org/2000/svg">
<path d="M217.008 28.969C219.436 37.5936 229.3 41.6803 237.11 37.2928C247.124 31.6517 259.216 39.9754 257.588 51.3579C256.312 60.2333 263.647 67.9804 272.559 67.128C284 66.0499 291.66 78.5857 285.552 88.3135C280.77 95.9102 284.35 105.964 292.837 108.822C303.702 112.508 305.654 127.074 296.091 133.467C288.656 138.457 287.83 149.087 294.414 155.179C302.85 162.977 298.695 177.067 287.379 179.022C278.567 180.552 273.485 189.929 277.015 198.177C281.571 208.732 272.033 219.914 260.918 217.106C252.231 214.9 243.795 221.419 243.669 230.369C243.544 241.877 230.301 248.22 221.264 241.1C214.229 235.559 203.865 238.066 200.135 246.214C195.353 256.669 180.658 257.07 175.301 246.891C171.12 238.969 160.631 237.013 153.921 242.955C145.31 250.552 131.741 244.936 130.965 233.453C130.364 224.502 121.577 218.46 113.04 221.143C102.075 224.578 91.9616 213.897 95.942 203.116C99.0463 194.692 93.4636 185.591 84.5514 184.563C73.1608 183.234 68.2291 169.37 76.24 161.121C82.4736 154.703 81.0717 144.098 73.3861 139.535C63.5226 133.668 64.6492 119.001 75.3138 114.739C83.6252 111.404 86.6543 101.175 81.4722 93.8543C74.8381 84.4775 81.8227 71.5406 93.2884 71.9919C102.226 72.3429 109.16 64.2197 107.383 55.4195C105.13 44.1373 116.771 35.1868 127.06 40.2512C135.096 44.2125 144.709 39.5994 146.687 30.8494C149.215 19.6424 163.485 16.1825 170.82 25.0077C176.552 31.9024 187.217 31.6015 192.549 24.406C199.434 15.2298 213.879 17.9124 217.008 28.969Z" fill="#4F3422"/>
<path d="M358.203 299.544C348.815 266.65 319.9 243.183 285.828 240.776C207.847 235.235 74.6892 233.229 46.4255 263.466C37.1878 273.344 56.0387 255.393 46.4255 263.466C3.19126 299.744 -3.54297 387.745 -3.54297 387.745L97.4454 387.043L378.706 387.846C380.258 379.823 368.617 336.098 358.203 299.544Z" fill="#FF8391"/>
<path d="M226.674 204.246L219.714 182.083C225.547 183.462 231.956 182.007 236.687 177.62C244.273 170.6 244.748 158.766 237.739 151.169C230.729 143.573 218.913 143.096 211.328 150.116C210.877 150.543 210.451 150.969 210.051 151.42L201.84 125.296C200.813 122.061 197.609 120.056 194.254 120.557C177.631 123.039 131.218 134.697 127.838 187.348C127.588 191.334 130.717 194.744 134.723 194.744L155.201 194.719L153.574 208.959C178.257 213.698 202.841 211.116 226.674 204.246Z" fill="#CFD9B5"/>
<path d="M226.672 204.246C202.864 211.141 178.256 213.698 153.597 208.96L148.74 251.506C146.287 272.942 158.754 293.651 179.157 300.596C180.108 300.922 181.084 301.223 182.061 301.524C217.409 311.803 249.779 277.781 238.713 242.606L226.672 204.246Z" fill="#FF8391"/>
<path d="M163.26 136.805C153.146 142.045 143.007 147.26 132.894 152.5C131.567 153.177 131.442 155.107 132.418 156.11C135.422 159.169 138.401 162.203 141.405 165.261C143.483 167.367 146.713 164.133 144.635 162.027C141.631 158.968 138.651 155.935 135.647 152.876C135.497 154.08 135.347 155.283 135.172 156.486C145.286 151.246 155.424 146.032 165.538 140.792C168.192 139.413 165.864 135.451 163.26 136.805Z" fill="#4F3422"/>
<path d="M160.382 172.305C160.657 174.662 157.904 176.818 155.751 175.489C153.222 173.96 150.919 177.921 153.447 179.451C158.329 182.434 165.639 178.172 164.988 172.305C164.838 171.077 164.037 170.024 162.685 170.024C161.559 169.999 160.257 171.052 160.382 172.305Z" fill="#4F3422"/>
<path d="M227.524 159.442C223.593 160.771 219.663 162.099 215.733 163.428C212.954 164.381 214.155 168.794 216.959 167.841C220.89 166.512 224.82 165.183 228.75 163.854C231.529 162.927 230.328 158.489 227.524 159.442Z" fill="#4F3422"/>
<path d="M172.2 150.516C176.581 160.419 190.25 162.951 198.286 156.082C200.539 154.151 197.285 150.917 195.057 152.847C189.049 157.987 179.285 155.229 176.181 148.209C174.979 145.501 171.024 147.833 172.2 150.516Z" fill="#4F3422"/>
<path d="M175.954 152.347C174.276 154.052 172.574 155.732 170.897 157.436C168.819 159.517 172.048 162.777 174.126 160.671C175.803 158.966 177.506 157.286 179.183 155.581C181.286 153.5 178.057 150.266 175.954 152.347Z" fill="#4F3422"/>
<path d="M183.188 158.967C183.213 160.672 183.238 162.352 183.263 164.057C183.288 167.015 187.894 167.015 187.844 164.057C187.819 162.352 187.794 160.672 187.769 158.967C187.719 156.034 183.138 156.009 183.188 158.967Z" fill="#4F3422"/>
<path d="M192.2 158.918C192.751 160.422 193.277 161.952 193.827 163.456C194.253 164.609 195.38 165.411 196.656 165.06C197.783 164.76 198.684 163.406 198.259 162.227C197.708 160.723 197.182 159.194 196.631 157.689C196.206 156.511 195.079 155.734 193.802 156.085C192.676 156.411 191.8 157.765 192.2 158.918Z" fill="#4F3422"/>
<path d="M207.973 327.348C207.973 331.735 204.418 335.321 200.012 335.321C195.631 335.321 192.051 331.76 192.051 327.348C192.051 322.96 195.606 319.375 200.012 319.375C204.418 319.375 207.973 322.935 207.973 327.348Z" fill="#4F3422"/>
<path d="M92.7646 302.178C67.2546 315.291 41.7447 328.403 16.2097 341.516C10.3517 344.524 4.49365 347.533 -1.36438 350.542C-10.9775 355.506 -18.7882 362.049 -23.019 372.329C-26.7742 381.43 -27.2248 393.991 -22.969 403.067C-18.5629 412.468 -11.278 421.093 -1.2392 424.753C8.29886 428.213 20.065 429.517 29.4528 424.703C45.4498 416.48 61.4717 408.256 77.4686 400.008C100.475 388.174 123.482 376.365 146.488 364.532C133.32 341.365 120.252 318.124 107.91 294.406C102.853 297.014 97.7965 299.596 92.7646 302.178Z" fill="#FF8391"/>
<path d="M171.574 351.643C181.187 346.704 188.998 340.16 193.229 329.881C196.984 320.78 197.434 308.219 193.179 299.143C188.773 289.741 181.488 281.116 171.449 277.456C161.911 273.996 170.247 260.232 160.859 265.071C149.894 270.712 118.852 288.788 107.887 294.404C120.229 318.147 133.272 341.388 146.465 364.53C148.968 363.251 151.496 361.947 154 360.669C159.858 357.66 165.716 354.651 171.574 351.643Z" fill="#CFD9B5"/>
<path d="M175.878 295.58C178.907 275.247 181.936 254.889 184.966 234.556C185.842 228.639 181.586 222.12 175.427 221.443C169.294 220.766 163.286 224.653 162.335 230.996C159.305 251.329 156.276 271.687 153.247 292.02C152.371 297.937 156.627 304.455 162.785 305.132C168.919 305.834 174.927 301.923 175.878 295.58Z" fill="#CFD9B5"/>
<path d="M176.981 295.881C179.26 280.512 181.563 265.118 183.841 249.749C185.193 240.623 190.049 226.232 178.759 221.193C174.778 219.413 169.872 220.14 166.342 222.597C161.961 225.631 161.285 230.194 160.559 235.158C158.281 250.552 155.978 265.921 153.7 281.315C153.474 282.769 155.702 283.37 155.903 281.916C157.755 269.506 159.583 257.095 161.435 244.685C161.886 241.701 162.311 238.718 162.762 235.76C163.163 233.077 163.263 230.143 164.64 227.712C167.468 222.747 174.578 220.867 179.335 224.126C185.017 228.037 183.866 234.28 182.99 240.172C182.113 246.114 181.212 252.081 180.336 258.023C178.484 270.434 176.656 282.819 174.803 295.229C174.553 296.734 176.756 297.335 176.981 295.881Z" fill="#4F3422"/>
<path d="M181.36 334.165C186.542 300.995 191.725 267.8 196.907 234.631C197.833 228.714 193.627 222.17 187.444 221.443C181.31 220.716 175.277 224.577 174.276 230.92C169.094 264.09 163.911 297.285 158.729 330.454C157.803 336.371 162.009 342.915 168.192 343.642C174.326 344.369 180.359 340.508 181.36 334.165Z" fill="#CFD9B5"/>
<path d="M188.272 301.398C190.175 288.561 192.103 275.724 194.005 262.913C194.956 256.495 195.908 250.076 196.859 243.658C197.535 239.045 199.162 233.855 197.785 229.217C195.632 221.946 187.997 218.336 181.037 221.119C177.533 222.523 174.754 225.431 173.677 229.066C171.95 234.908 171.7 241.577 170.798 247.619C168.62 262.186 166.467 276.727 164.289 291.294C164.064 292.748 166.292 293.35 166.492 291.896C168.545 278.081 170.598 264.267 172.651 250.452C173.602 244.059 174.228 237.54 175.505 231.197C176.731 225.105 182.965 220.768 189.174 222.874C196.609 225.406 196.108 233.078 195.157 239.321C194.155 245.99 193.179 252.659 192.178 259.303C190.125 273.117 188.072 286.932 186.019 300.771C185.844 302.225 188.047 302.852 188.272 301.398Z" fill="#4F3422"/>
<path d="M182.639 242.929C178.959 267.65 175.279 292.37 171.599 317.091C170.722 323.008 174.978 329.527 181.137 330.203C187.27 330.88 193.278 326.994 194.23 320.651C197.91 295.931 201.59 271.21 205.27 246.489C206.146 240.573 201.89 234.054 195.732 233.377C189.598 232.7 183.59 236.586 182.639 242.929Z" fill="#CFD9B5"/>
<path d="M193.403 333.965C197.484 306.612 201.539 279.259 205.62 251.906C206.396 246.766 207.322 241.952 204.143 237.389C201.239 233.228 196.357 231.397 191.401 232.475C179.835 234.983 180.561 249.148 179.184 258.424C177.131 272.289 175.053 286.154 173 300.043C172.775 301.497 175.003 302.099 175.203 300.645C176.73 290.316 178.283 279.986 179.81 269.657C180.636 264.015 181.487 258.374 182.313 252.758C182.989 248.195 182.864 241.852 185.993 238.217C190.7 232.776 199.437 233.403 202.916 239.821C205.645 244.886 203.292 251.881 202.491 257.246C200.663 269.531 198.836 281.841 197.008 294.126C195.056 307.189 193.128 320.276 191.175 333.338C190.975 334.793 193.178 335.419 193.403 333.965Z" fill="#4F3422"/>
<path d="M293.239 303.356C318.749 316.468 344.259 329.581 369.794 342.693C375.652 345.702 381.51 348.71 387.368 351.719C396.981 356.658 404.792 363.202 409.023 373.481C412.778 382.582 413.229 395.143 408.973 404.219C404.567 413.621 397.282 422.27 387.243 425.906C377.705 429.366 365.939 430.669 356.551 425.856C340.554 417.632 324.532 409.409 308.535 401.16C285.529 389.326 262.522 377.518 239.516 365.684C252.684 342.518 265.752 319.276 278.093 295.559C283.15 298.166 288.207 300.773 293.239 303.356Z" fill="#FF8391"/>
<path d="M214.433 352.795C204.819 347.856 197.009 341.312 192.778 331.033C189.023 321.932 188.572 309.371 192.828 300.295C197.234 290.893 204.519 282.244 214.558 278.608C224.096 275.148 215.759 261.384 225.147 266.223C236.112 271.864 267.155 289.941 278.12 295.582C265.778 319.325 252.735 342.566 239.542 365.707C237.038 364.428 234.51 363.125 232.007 361.846C226.149 358.837 220.291 355.829 214.433 352.795Z" fill="#CFD9B5"/>
<path d="M210.124 296.76C207.094 276.427 204.065 256.069 201.036 235.736C200.16 229.819 204.416 223.3 210.574 222.623C216.708 221.946 222.716 225.832 223.667 232.175C226.696 252.508 229.725 272.867 232.755 293.2C233.631 299.117 229.375 305.635 223.217 306.312C217.083 306.989 211.075 303.103 210.124 296.76Z" fill="#CFD9B5"/>
<path d="M211.227 296.456C209.375 284.045 207.547 271.66 205.695 259.25C204.819 253.308 203.917 247.341 203.041 241.399C202.165 235.507 200.988 229.264 206.696 225.353C211.453 222.068 218.537 223.974 221.391 228.938C222.768 231.32 222.868 234.303 223.269 236.986C223.72 239.97 224.145 242.953 224.596 245.912C226.448 258.322 228.276 270.732 230.128 283.143C230.354 284.597 232.557 283.97 232.331 282.541C230.053 267.147 227.75 251.778 225.472 236.384C224.721 231.42 224.07 226.857 219.689 223.824C216.159 221.366 211.252 220.639 207.272 222.419C195.957 227.459 200.838 241.825 202.19 250.976C204.468 266.345 206.771 281.739 209.049 297.108C209.225 298.512 211.453 297.885 211.227 296.456Z" fill="#4F3422"/>
<path d="M204.643 335.345C199.461 302.175 194.279 268.98 189.097 235.81C188.17 229.893 192.376 223.35 198.56 222.623C204.693 221.896 210.726 225.757 211.728 232.1C216.91 265.269 222.092 298.464 227.274 331.634C228.2 337.551 223.994 344.095 217.811 344.822C211.677 345.549 205.644 341.688 204.643 335.345Z" fill="#CFD9B5"/>
<path d="M199.935 301.948C197.882 288.134 195.829 274.319 193.776 260.48C192.825 254.061 191.873 247.643 190.922 241.225C189.971 234.806 189.045 226.683 196.805 224.051C202.638 222.07 209.072 225.956 210.374 231.848C211.776 238.317 212.377 245.061 213.328 251.604C215.381 265.419 217.433 279.233 219.486 293.048C219.712 294.502 221.915 293.875 221.689 292.446C219.787 279.609 217.859 266.773 215.956 253.961C215.005 247.543 214.054 241.125 213.103 234.706C212.477 230.569 211.676 226.984 208.296 224.226C202.388 219.387 193.426 220.691 189.495 227.335C187.142 231.322 187.693 235.233 188.344 239.595C189.295 246.013 190.246 252.432 191.198 258.85C193.376 273.417 195.528 287.958 197.706 302.525C197.932 304.029 200.16 303.402 199.935 301.948Z" fill="#4F3422"/>
<path d="M203.366 244.109C207.046 268.83 210.726 293.55 214.407 318.271C215.283 324.188 211.027 330.706 204.868 331.383C198.735 332.06 192.727 328.174 191.776 321.831C188.095 297.11 184.415 272.39 180.735 247.669C179.859 241.752 184.115 235.234 190.273 234.557C196.407 233.88 202.415 237.766 203.366 244.109Z" fill="#CFD9B5"/>
<path d="M194.804 334.517C191.249 310.674 187.695 286.806 184.165 262.963C183.364 257.522 181.786 251.656 181.786 246.165C181.761 238.819 188.871 233.754 195.756 236.387C201.814 238.719 202.29 244.435 203.116 250.026C203.917 255.441 204.718 260.857 205.544 266.272C207.296 278.106 209.074 289.94 210.826 301.799C211.052 303.253 213.255 302.626 213.029 301.197C211.202 288.987 209.399 276.777 207.572 264.542C206.696 258.6 205.794 252.658 204.918 246.716C204.142 241.577 202.64 237.139 197.683 234.707C187.544 229.743 178.357 238.694 179.784 248.948C181.661 262.336 183.764 275.674 185.742 289.037C188.02 304.406 190.323 319.75 192.601 335.119C192.802 336.598 195.03 335.971 194.804 334.517Z" fill="#4F3422"/>
<path d="M5.64479 348.257C35.0351 332.563 64.4503 316.868 93.8406 301.173C97.9963 298.942 102.152 296.735 106.308 294.504C107.609 293.802 106.458 291.821 105.156 292.523C75.7658 308.218 46.3506 323.913 16.9603 339.608C12.8046 341.839 8.64891 344.045 4.49321 346.277C3.1664 346.979 4.34301 348.959 5.64479 348.257Z" fill="#4F3422"/>
<path d="M365.288 339.105C339.979 325.942 314.694 312.755 289.384 299.592C285.854 297.762 282.325 295.907 278.77 294.076C277.468 293.4 276.291 295.38 277.618 296.057C302.928 309.22 328.213 322.407 353.522 335.57C357.052 337.4 360.582 339.255 364.137 341.086C365.439 341.763 366.59 339.782 365.288 339.105Z" fill="#4F3422"/>
<path d="M22.8198 325.743C28.2272 327.222 33.6346 328.676 39.0671 330.156C40.494 330.532 41.0949 328.325 39.6679 327.949C34.2605 326.47 28.8531 325.016 23.4207 323.537C21.9937 323.136 21.3929 325.342 22.8198 325.743Z" fill="#4F3422"/>
<path d="M342.282 328.15C346.612 326.796 350.843 325.167 354.974 323.261C356.301 322.659 355.149 320.679 353.822 321.28C349.867 323.086 345.811 324.64 341.681 325.944C340.279 326.37 340.88 328.601 342.282 328.15Z" fill="#4F3422"/>
<path d="M292.965 114.892C297.17 124.043 308.736 123.542 315.771 118.226C323.306 112.51 330.892 100.25 327.587 90.4973C325.134 83.2516 314.069 78.8641 309.888 87.238C308.085 90.8232 309.512 95.1105 312.291 97.7931C315.846 101.203 321.278 101.78 325.96 101.93C337.05 102.306 350.018 97.3168 351.72 84.9063C352.121 82.0231 347.715 80.7695 347.314 83.6778C346.062 92.6785 337.551 96.9407 329.214 97.3168C325.259 97.4923 320.352 97.5173 316.822 95.4364C314.895 94.3082 313.292 92.2272 313.843 89.9457C314.394 87.589 317.123 86.8118 319.226 87.4887C323.532 88.8927 324.157 94.3082 323.431 98.0689C322.555 102.582 320.027 107.045 317.123 110.555C312.391 116.246 301.251 121.962 296.945 112.535C295.668 109.903 291.738 112.234 292.965 114.892Z" fill="#4F3422"/>
<path d="M46.0487 53.7645C45.2226 64.5954 54.2349 73.9722 65.1499 72.8941C75.8145 71.816 83.0744 61.311 80.3457 50.9063C79.3443 47.1205 76.165 42.6578 71.809 45.1148C67.4531 47.5718 66.5268 54.1155 67.1276 58.5532C68.8049 70.8382 80.2205 77.1312 91.0354 80.3404C93.8642 81.1928 95.0659 76.7551 92.262 75.9278C85.5028 73.922 78.2679 70.9636 74.2624 64.821C72.2596 61.7372 71.058 57.801 71.6588 54.0904C71.784 53.3633 71.9592 52.6112 72.2346 51.9343C72.535 51.1069 73.8118 49.1262 75.0134 49.7029C76.1149 50.2294 76.3402 54.4916 76.3402 55.2938C76.3903 62.715 70.3821 68.6069 62.9719 68.4063C55.2363 68.2057 50.0792 61.1857 50.63 53.7645C50.8553 50.8311 46.274 50.8311 46.0487 53.7645Z" fill="#4F3422"/>
<path d="M50.0311 228.312C55.8641 233.828 65.1268 234.856 71.9612 230.493C75.6913 228.112 77.9444 224.351 79.4965 220.314C81.0486 216.177 82.9512 210.612 80.4728 206.425C78.7455 203.491 74.6899 201.586 71.5356 203.391C68.3312 205.221 67.8806 209.358 68.8819 212.567C71.3353 220.515 80.5479 224.476 88.2835 224.075C99.2736 223.498 107.585 215.175 113.518 206.65C115.195 204.218 111.24 201.937 109.563 204.344C105.232 210.561 99.6241 216.679 92.1138 218.835C86.0054 220.59 77.9944 219.061 74.3394 213.42C73.6635 212.367 72.587 210.461 72.9625 209.132C74.064 205.196 76.3672 208.506 76.7928 209.885C77.1933 211.188 76.9931 212.392 76.7177 213.695C75.9666 217.456 74.4646 221.794 71.811 224.652C66.9793 229.841 58.2924 229.816 53.2605 225.028C51.1326 223.022 47.8782 226.281 50.0311 228.312Z" fill="#4F3422"/>
<path d="M241.166 48.6007C237.011 41.9818 237.586 32.7805 243.57 27.3901C248.727 22.7519 261.069 20.5957 265.224 27.8414C266.626 30.2984 265.6 33.633 262.245 32.9059C259.642 32.3292 258.465 29.6466 258.265 27.2146C257.939 23.4037 259.391 19.4424 261.319 16.2333C265.224 9.7648 272.109 5.32712 279.619 4.60005C282.523 4.32426 282.548 -0.263842 279.619 0.011946C270.431 0.86438 262.145 5.95391 257.364 13.9016C253.358 20.5456 250.629 33.6079 260.167 37.0427C263.522 38.2461 267.552 37.4689 269.505 34.2848C271.959 30.3235 270.106 25.4847 266.801 22.6767C259.767 16.7598 248.576 17.7125 241.592 23.1029C233.155 29.6215 231.653 42.057 237.211 50.9073C238.788 53.4144 242.743 51.1079 241.166 48.6007Z" fill="#4F3422"/>
</svg>
