<svg width="209" height="145" viewBox="0 0 209 145" fill="none" xmlns="http://www.w3.org/2000/svg">
<path d="M212.756 253.46C227.589 221.04 233.188 186.928 231.659 150.073C230.666 126.066 222.446 104.127 206.958 90.8806C157.279 48.4358 113.398 94.2818 113.398 94.2818C98.5857 77.1765 74.0638 65.4614 36.8144 81.4131C24.901 86.5247 13.5633 98.2398 7.16978 111.387C0.220276 125.648 0.0217285 142.972 0.00186157 159.441C-0.0179901 176.685 5.44234 212.626 11.4388 228.359C15.2908 238.443 22.5779 255.727 25.8342 257.577L212.756 253.46Z" fill="#ED7E1C"/>
<path d="M136.391 129.206C103.073 140.563 63.7193 131.931 40.5873 102.872C35.9808 97.2231 32.506 91.0971 30.0241 84.6528C32.2479 83.2605 34.5115 82.087 36.8147 81.1323C74.0641 65.7177 98.586 77.035 113.398 93.5435C113.398 93.5435 150.132 56.5087 194.43 81.5699C190.101 88.77 185.773 95.9701 179.915 102.414C168.319 115.601 152.594 123.319 136.391 129.206Z" fill="#F6A460"/>
<path d="M107.601 29.8951C103.689 14.7391 110.777 8.41413 117.171 6.34559C123.584 4.27705 130.832 7.35997 135.2 12.5313C137.662 15.4551 139.568 19.1546 143.043 20.7458C145.267 21.7602 147.789 21.7403 150.231 21.6408C158.352 21.3027 166.513 20.2883 174.574 21.3027C182.635 22.3171 190.856 25.6984 195.542 32.4012C199.572 38.1494 200.684 45.807 205.668 50.7396C214.464 59.4315 230.23 55.1353 240.177 62.4547C243.751 65.0802 246.273 69.1377 247.067 73.5135C248.775 82.981 242.719 93.0055 245.975 102.075C248.596 109.355 256.757 114.228 257.412 121.945C257.809 126.719 254.97 131.373 251.019 133.998C247.047 136.624 242.143 137.479 237.398 137.36C225.961 137.101 214.762 131.373 207.793 122.243C204.497 117.927 202.134 112.955 198.877 108.639C195.621 104.303 191.094 100.484 185.713 99.947C183.628 99.7481 181.523 100.046 179.419 100.086C170.742 100.245 162.124 95.5315 157.518 88.1126C152.812 80.5346 151.78 77.5909 145.307 71.5046C133.83 60.7243 125.848 75.0649 112.267 63.0514C106.965 58.3574 113.279 43.0025 109.666 36.8963C107.898 33.893 114.371 32.1228 111.016 31.3272L107.601 29.8951Z" fill="#3F3C36"/>
<path d="M109.725 15.278C107.799 7.97843 113.676 0.937444 120.884 0.102072C125.272 -0.415063 129.74 1.07667 133.314 3.58279C137.324 6.36736 139.806 11.0415 144.036 13.468C149.178 16.4117 155.254 15.099 160.714 13.9653C165.301 13.0304 169.868 12.1155 174.574 12.7321C182.635 13.7664 190.24 18.3211 194.827 25.0837C200.565 33.5766 199.354 45.4906 208.924 51.3382C218.356 57.1062 230.031 55.4753 240.038 59.493C247.266 62.3969 253.818 68.9407 252.845 77.2944C251.793 86.4835 243.314 94.4792 249.311 103.668C251.872 107.606 255.645 110.709 257.571 115.065C259.259 118.904 258.901 123.121 256.737 126.701C251.197 135.85 239.542 135.432 231.024 131.176C229.971 130.659 230.905 129.087 231.937 129.605C240.435 133.861 254.215 133.662 256.657 122.106C258.425 113.713 249.132 108.7 246.233 101.838C243.195 94.6383 247.782 87.9951 250.026 81.332C251.455 77.0756 251.555 72.7396 249.073 68.8412C246.571 64.8633 242.341 62.2179 237.973 60.7262C229.276 57.7626 219.765 58.3394 211.267 54.6598C203.583 51.3183 200.128 45.3116 197.865 37.5347C196.614 33.2385 195.383 29.002 192.702 25.3422C190.141 21.8416 186.646 19.0372 182.774 17.1277C178.882 15.2183 174.534 14.2238 170.186 14.3829C165.619 14.5421 161.191 15.8946 156.704 16.6106C152.574 17.267 148.245 17.5056 144.353 15.7355C140.144 13.8061 137.722 9.82818 134.386 6.82482C130.295 3.14521 124.319 0.658987 118.839 2.40929C113.716 4.04025 110.003 9.49005 111.413 14.8404C111.77 15.9344 110.023 16.4117 109.725 15.278Z" fill="#3F3C36"/>
<path d="M111.135 16.3115C103.094 14.5015 94.8736 18.7182 91.9945 26.5747C89.3339 33.8344 92.61 40.2986 95.8267 46.6833C98.2689 51.5563 100.612 56.8469 99.361 62.3962C98.1299 67.8858 93.8808 71.7643 88.619 73.3356C82.2851 75.2251 71.2254 75.1058 71.2254 84.3148C71.2254 91.137 76.924 96.8056 75.7525 103.827C74.9384 108.64 71.0268 110.788 66.5196 111.186C63.9383 111.425 61.3372 111.206 58.756 111.504C54.2884 112.021 52.0845 114.587 50.8335 118.824C49.6025 122.981 46.8823 131.096 40.7667 128.271C37.3515 126.7 38.0266 121.011 41.958 120.832C43.1295 120.773 43.1295 122.603 41.958 122.662C39.4363 122.782 40.4887 125.049 41.1638 125.845C42.2956 127.197 43.5465 127.157 45.0754 126.242C46.644 125.308 47.4779 123.537 48.0736 121.867C49.0068 119.221 49.3642 116.357 50.913 113.951C53.3354 110.152 57.7235 109.634 61.8733 109.535C64.2957 109.475 66.8571 109.634 69.2001 108.899C73.0521 107.705 74.442 104.224 73.9853 100.445C73.2904 94.5381 68.9817 89.4463 69.4582 83.3402C69.8355 78.487 73.6081 75.4638 77.9168 73.9522C84.1118 71.7842 91.4584 72.5002 95.6281 66.4338C103.054 55.6536 90.3465 44.9131 89.2346 34.2123C87.9439 21.6619 99.5198 11.8562 111.612 14.5612C112.764 14.7999 112.287 16.5701 111.135 16.3115Z" fill="#3F3C36"/>
<path d="M174.019 96.9446C184.403 96.4274 192.961 104.821 192.981 115.223C192.981 121.707 189.804 128.112 193.358 134.258C195.046 137.182 198.084 139.907 201.579 140.125C203.683 140.265 206.384 139.29 206.96 136.963C207.774 133.681 202.83 130.877 201.876 134.934C201.598 136.068 199.851 135.59 200.129 134.457C201.479 128.768 209.362 130.976 208.886 136.505C208.31 143.268 199.732 142.671 195.761 139.668C193.021 137.619 191.055 134.596 190.221 131.274C189.228 127.296 190.221 123.279 190.817 119.321C192.445 108.58 185.674 98.1976 174.059 98.7744C172.847 98.8142 172.847 97.0042 174.019 96.9446Z" fill="#3F3C36"/>
<path d="M124.777 38.228C123.586 39.1032 122.375 38.7849 122.375 38.7849C122.295 37.9893 120.727 37.2733 120.727 37.2733C120.925 36.9948 121.859 36.1595 121.581 35.9805L124.777 38.228Z" fill="#3F3C36"/>
<path d="M125.233 39.0052C124.339 39.6019 123.207 39.9002 122.135 39.6616C121.837 39.6019 121.559 39.3234 121.5 39.0251C121.401 38.5676 120.666 38.2494 120.269 38.0704C119.673 37.7919 119.772 37.056 120.09 36.6383C120.209 36.4991 120.328 36.3598 120.448 36.2206C120.606 36.0416 120.706 35.7433 120.706 36.0416C120.785 36.2604 120.884 36.4792 120.964 36.6781C120.944 36.6582 120.924 36.6383 120.924 36.6184C120.189 35.7234 121.46 34.4305 122.215 35.3256C123.049 36.3399 121.957 37.1355 121.361 37.8914C121.301 37.414 121.242 36.9366 121.182 36.4593C122.036 36.8571 123.049 37.5333 123.247 38.5079C123.029 38.2891 122.83 38.0903 122.612 37.8715C123.088 37.9709 123.803 37.7322 124.319 37.3941C125.292 36.7775 126.206 38.3687 125.233 39.0052Z" fill="#3F3C36"/>
<path d="M135.398 82.487L118.283 16.0352C118.283 16.0352 88.5984 35.1095 92.1328 61.5033L106.032 57.6048C106.032 57.6048 103.431 70.6923 100.909 83.561C98.5462 95.6143 108.99 106.275 121.063 104.147C121.221 104.127 121.38 104.087 121.539 104.067C131.546 102.257 137.94 92.3523 135.398 82.487Z" fill="#F6A460"/>
<path d="M134.862 43.7233C132.241 46.9057 127.555 47.3433 124.378 44.7178C121.201 42.0924 120.764 37.3984 123.385 34.216C126.006 31.0337 130.692 30.5961 133.869 33.2215C137.026 35.847 137.483 40.5609 134.862 43.7233Z" fill="#F6A460"/>
<path d="M125.609 39.8847C127.932 38.4526 130.275 37.0405 132.638 35.6681C133.651 35.0714 134.564 36.6427 133.551 37.2394C131.188 38.6118 128.865 40.0438 126.522 41.456C125.53 42.0726 124.616 40.5013 125.609 39.8847Z" fill="#3F3C36"/>
<path d="M106.051 57.6036L100.948 84.1366L116.098 54.0234L106.051 57.6036Z" fill="#3F3C36"/>
<path d="M100.112 43.2064C100.112 43.2064 104.838 44.3004 111.35 42.57C112.601 42.2318 113.773 43.3258 113.515 44.5788C112.939 47.1844 110.258 50.9635 99.8937 52.3756L100.112 43.2064Z" fill="white"/>
<path d="M100.391 42.1916C103.508 42.8679 106.983 42.4701 110.041 41.8137C112.721 41.2369 115.302 42.3508 114.329 45.5331C112.642 51.1222 105.017 52.6935 100.152 53.4095C98.8221 53.6084 98.2463 51.5597 99.5964 51.3608C103.131 50.8437 111.053 49.71 112.185 45.2348C112.681 43.3055 109.921 44.0215 108.69 44.2204C107.241 44.4591 105.772 44.5983 104.302 44.6182C102.813 44.6381 101.284 44.5585 99.8347 44.2403C98.4845 43.9419 99.0603 41.8933 100.391 42.1916Z" fill="#ED7E1C"/>
<path d="M105.714 28.8834C102.06 31.9664 98.4664 35.467 95.488 39.1864C95.2696 38.6692 95.0512 38.1521 94.8527 37.635C96.739 37.7941 98.6451 37.9532 100.551 38.1123C101.703 38.2117 101.723 40.0217 100.551 39.9422C98.6451 39.783 96.7588 39.6239 94.8527 39.4648C94.0187 39.3853 93.701 38.53 94.2173 37.9134C97.1956 34.1741 100.79 30.6934 104.443 27.6105C105.317 26.8348 106.607 28.1276 105.714 28.8834Z" fill="#3F3C36"/>
<path d="M116.595 44.239C115.086 45.9296 112.981 46.8644 110.718 46.8843C109.546 46.9042 109.546 45.0743 110.718 45.0743C112.524 45.0545 114.113 44.3185 115.304 42.966C116.099 42.0909 117.369 43.3638 116.595 44.239Z" fill="#3F3C36"/>
<path d="M117.233 32.343C114.87 30.8712 112.05 30.6524 109.509 31.8458C108.456 32.343 107.543 30.7717 108.595 30.2745C111.713 28.8026 115.207 28.9418 118.146 30.7717C119.139 31.3883 118.225 32.9596 117.233 32.343Z" fill="#3F3C36"/>
<path d="M115.646 31.4495C115.706 32.1059 115.646 32.7623 115.428 33.3789C115.249 33.896 114.614 34.2739 114.097 33.9159C113.8 33.717 113.522 33.5579 113.164 33.5181C112.847 33.4783 112.529 33.5778 112.211 33.5778C111.258 33.5976 111.079 32.802 111 32.0462C110.921 31.2904 110.921 30.4749 111.814 30.1965C112.569 29.9777 113.561 30.4153 114.276 30.6142C114.912 30.7932 115.19 31.6683 114.673 32.1258C113.978 32.7424 112.966 32.7822 112.291 32.086C111.477 31.2308 112.767 29.9578 113.581 30.7932C113.542 30.7534 113.422 30.8131 113.383 30.833C113.522 31.3302 113.641 31.8473 113.78 32.3446C113.482 32.265 113.184 32.1855 112.906 32.1059C112.767 32.0661 112.608 32.0263 112.469 31.9866C112.191 31.9667 112.171 31.9269 112.41 31.8871C112.509 31.7877 112.628 31.6683 112.727 31.5689C112.767 31.3899 112.767 31.3899 112.767 31.5291C112.767 31.6286 112.787 31.728 112.787 31.8275C112.787 31.907 112.906 32.3844 112.767 32.1258C112.668 32.0264 112.549 31.907 112.449 31.8076C112.489 31.8275 112.509 31.8473 112.549 31.8672C112.39 31.8275 112.251 31.7877 112.092 31.7479C112.529 31.7678 113.045 31.6683 113.542 31.7479C114.058 31.8274 114.554 32.0462 114.991 32.3446C114.554 32.5236 114.097 32.7026 113.661 32.8816C113.819 32.3844 113.879 31.9468 113.819 31.4297C113.76 30.9324 114.276 30.5147 114.733 30.5147C115.269 30.5346 115.587 30.9523 115.646 31.4495Z" fill="#3F3C36"/>
<path d="M115.248 34.8079C113.739 34.5692 112.23 34.6289 110.761 34.9869C109.629 35.2454 109.133 33.4951 110.284 33.2366C112.111 32.8189 113.898 32.7592 115.745 33.0576C116.877 33.2565 116.4 35.0068 115.248 34.8079Z" fill="#3F3C36"/>
<path d="M117.01 22.7365C115.64 22.1995 114.25 22.0603 112.821 22.3984C111.689 22.657 111.193 20.9067 112.344 20.6481C114.072 20.2503 115.839 20.3299 117.487 20.9862C118.579 21.4039 118.102 23.1542 117.01 22.7365Z" fill="#3F3C36"/>
<path d="M137.265 90.8404C136.034 87.3199 134.823 83.7994 133.592 80.2988C133.215 79.185 134.962 78.7076 135.339 79.8215C136.57 83.3419 137.781 86.8624 139.013 90.363C139.41 91.457 137.643 91.9343 137.265 90.8404Z" fill="#3F3C36"/>
</svg>
