<svg width="238" height="155" viewBox="0 0 238 155" fill="none" xmlns="http://www.w3.org/2000/svg">
<path d="M166.169 42.9807C233.497 65.9719 256.704 44.2109 307.142 57.6765C324.68 62.3645 366.956 74.0679 356.566 150.09C355.053 161.195 364.578 177.105 370.713 186.348C376.515 195.075 404.726 272.311 307.125 291.346C230.737 306.241 155.38 318.842 79.3076 290.864C52.7754 281.105 22.2867 271.031 7.24182 246.278C-6.42325 223.802 -0.106049 181.31 20.7905 162.392C83.1977 105.887 38.9109 84.1754 86.988 49.7634C105.79 36.3144 131.391 31.111 166.169 42.9807Z" fill="#F5F5F5"/>
<path d="M23.9467 133.747C25.6257 126.432 28.1194 118.985 30.2805 111.62C30.7127 110.124 31.1782 108.578 32.1258 107.148C34.0542 104.239 37.4289 103.208 39.9225 103.774C47.686 105.536 49.7807 113.997 46.7218 122.343C44.411 128.677 39.2742 136.423 32.7575 140.447C30.4966 141.843 27.8201 142.907 25.925 142.275C22.8661 141.278 23.2152 136.939 23.9467 133.747Z" fill="#F5F5F5"/>
<path d="M249.194 154.407C251.511 157.548 252.009 158.677 255.015 160.248C259.19 162.431 263.155 159.75 265.97 155.939C280.352 136.424 291.938 95.0967 294.007 95.2308C349.257 99.2525 354.753 115.224 310.208 204.333C287.572 249.337 235.75 229.784 226.883 219.883C225.925 218.811 211.907 219.769 229.162 211.036C230.119 210.557 222.727 207.531 222.057 206.669C217.786 201.077 224.547 194.317 220.831 188.361C232.379 178.805 242.625 167.563 249.194 154.407Z" fill="#CFD9B5"/>
<path d="M201.527 164.94C201.699 164.422 202.178 164.097 202.637 163.81C212.06 157.701 222.612 153.372 233.604 151.113L245.803 150.098C247.718 152.338 249.595 154.598 251.434 156.915C244.367 172.562 232.953 186.139 219.892 197.821C213.189 187.94 207.157 177.579 201.871 166.874C201.603 166.242 201.297 165.552 201.527 164.94Z" fill="#3F3C36"/>
<path d="M196.318 100.557C217.403 114.652 235.999 132.999 253.771 150.56C244.444 162.644 232.896 174.25 219.395 181.393C240.672 213.126 269.13 286.512 267.195 314.702C266.793 320.734 267.502 327.092 264.706 332.454C261.891 337.855 256.854 341.379 251.224 343.964C247.298 323.741 241.821 303.786 235.367 284.233C213.65 216.362 196.472 147.477 165.064 84.1641C176.133 88.3581 186.494 93.9884 196.318 100.557Z" fill="#9BB168"/>
<path d="M157.862 81.6538C160.295 82.4199 162.708 83.2434 165.063 84.1435C196.47 147.475 213.649 216.342 235.366 284.212C241.82 303.765 247.297 323.72 251.223 343.943C248.446 345.227 245.516 346.261 242.643 347.18C219.164 354.649 194.728 358 170.061 358.9C168.74 265.674 147.081 172.295 126.608 76.6172C137.026 76.7321 147.617 78.4557 157.862 81.6538Z" fill="white"/>
<path d="M52.1708 120.587C61.3249 101.072 76.4732 88.4518 94.1877 81.9405C104.376 78.2061 115.407 76.4826 126.648 76.6166C147.121 172.313 168.761 265.673 170.102 358.9C151.085 359.589 131.934 358.804 112.994 357.329C110.543 357.138 107.804 356.793 106.234 354.897C104.184 352.427 105.18 348.75 106.08 345.666C111.577 326.822 109.528 306.695 106.904 287.237C102.633 255.524 97.022 223.982 90.0703 192.728C89.5341 190.334 88.9979 187.902 88.6531 185.451C85.5507 186.983 82.4674 188.534 79.3841 190.066C68.4299 195.562 42.4231 181.908 39.0334 193.686C36.9651 167.526 40.5463 145.368 52.1708 120.587Z" fill="#9BB168"/>
<path d="M39.5317 200.199C44.6833 209.239 67.0131 206.213 89.4196 193.439C111.826 180.666 125.806 162.989 120.655 153.95C115.503 144.911 93.1731 147.937 70.7667 160.71C48.3602 173.484 34.3801 191.179 39.5317 200.199Z" fill="#3F3C36"/>
<path d="M104.761 151.095C109.549 156.305 117.4 166.32 122.188 171.51C130.997 160.939 143.599 153.604 157.138 151.172C179.219 147.208 193.218 171.932 193.793 173.234C193.793 173.234 189.637 187.425 184.601 180.147C183.509 178.577 181.115 180.013 181.977 181.718C186.899 191.465 178.702 197.134 175.293 191.389C176.27 200.792 172.306 212.876 167.192 220.804C157.56 235.742 145.82 247.826 127.818 251.867C86.1271 261.251 58.301 225.401 46.0444 192.117C50.2959 182.254 82.814 152.436 104.761 151.095Z" fill="#CFD9B5"/>
<path d="M119.503 155.366C114.639 146.748 110.56 137.69 105.696 129.072C105.14 128.095 106.653 127.214 107.208 128.191C112.073 136.809 116.152 145.867 121.016 154.485C121.572 155.462 120.059 156.343 119.503 155.366Z" fill="#3F3C36"/>
<path d="M133.543 160.839C133.543 160.839 145.781 147.74 152.56 143.067C164.184 135.081 165.257 130.293 170.926 123.265C172.419 121.426 175.426 122.575 175.503 125.027C175.656 130.312 173.128 137.015 170.504 140.749C168.053 144.235 171.251 149.176 175.349 148.218C190.555 144.656 208.94 140.022 220.852 139.754C224.088 139.677 228.895 141.745 227.861 144.963C227.497 146.073 226.482 146.705 225.505 147.222C216.351 152.144 202.199 155.802 191.225 157.813C196.224 158.828 208.116 155.649 210.28 162.122C212.119 167.637 207.657 172.463 202.467 172.463C205.78 171.429 222.269 184.375 173.185 197.838L133.543 160.839Z" fill="#CFD9B5"/>
<path d="M132.912 160.209C139.136 153.564 145.609 146.937 153.039 141.652C158.574 137.707 162.787 133.149 166.637 127.614C168.36 125.144 171.999 118.594 175.542 122.769C177.227 124.742 176.308 128.265 175.791 130.544C175.005 134.125 173.531 137.419 171.692 140.56C170.735 142.188 170.065 143.567 171.08 145.405C172.42 147.799 174.737 147.435 177.016 146.899C181.249 145.903 185.481 144.888 189.713 143.931C197.086 142.245 204.479 140.637 211.967 139.622C216.659 138.99 224.491 137.209 227.977 141.69C232.343 147.282 220.355 150.653 216.984 151.897C208.73 154.942 200.093 157.03 191.456 158.639C191.456 158.083 191.456 157.509 191.456 156.953C197.048 157.911 205.34 154.904 209.803 159.634C215.126 165.265 208.749 173.04 202.468 173.327C201.472 173.365 201.3 171.853 202.238 171.604C204.957 170.876 207.849 173.959 208.462 176.315C210.09 182.386 202.563 187.077 198.235 189.433C190.498 193.665 181.881 196.327 173.416 198.664C172.324 198.97 171.865 197.266 172.956 196.978C181.364 194.642 189.962 192.038 197.623 187.786C200.878 185.967 204.938 183.554 206.47 179.934C207.447 177.636 205.743 172.485 202.717 173.308C202.64 172.733 202.564 172.159 202.487 171.584C210.186 171.221 212.886 160.496 204.479 159.041C200.016 158.275 195.459 159.424 191.016 158.658C190.173 158.504 190.192 157.126 191.016 156.972C197.814 155.708 204.555 154.119 211.162 152.051C214.475 151.016 217.769 149.848 220.948 148.469C222.289 147.876 223.898 147.32 225.104 146.459C228.436 144.065 226.291 141.747 223.438 140.962C220.872 140.254 218.018 140.713 215.414 140.981C211.737 141.364 208.079 141.958 204.421 142.648C197.335 143.969 190.288 145.597 183.279 147.244C179.046 148.24 172.42 151.361 169.586 146.305C168.686 144.716 168.59 142.82 169.318 141.135C170.639 138.109 172.516 135.6 173.512 132.344C174.067 130.525 174.527 128.629 174.622 126.733C174.642 126.235 174.814 125.048 174.584 124.569C173.052 121.275 171.06 124.512 170.409 125.374C169.03 127.212 167.766 129.146 166.426 131.004C163.4 135.236 159.819 138.817 155.663 141.92C147.869 147.78 140.86 154.31 134.195 161.454C133.391 162.277 132.146 161.032 132.912 160.209Z" fill="#3F3C36"/>
<path d="M171.692 124.531C172.477 128.591 169.47 132.842 165.161 132.747C164.031 132.727 164.031 130.966 165.161 131.004C168.264 131.08 170.581 127.978 170.006 124.991C169.796 123.899 171.481 123.42 171.692 124.531Z" fill="#3F3C36"/>
<path d="M224.355 141.612C223.072 141.573 221.789 141.612 220.544 141.995C219.931 142.186 219.337 142.32 218.993 142.914C218.475 143.239 218.456 143.584 218.954 143.967C219.107 144.523 219.471 144.772 220.065 144.676C222.286 144.925 224.623 144.81 226.864 144.867C227.993 144.906 227.993 146.648 226.864 146.61C224.47 146.553 221.942 146.706 219.567 146.361C218.341 146.189 217.154 145.538 216.867 144.235C216.043 140.29 221.789 139.754 224.336 139.85C225.485 139.888 225.485 141.65 224.355 141.612Z" fill="#3F3C36"/>
<path d="M174.029 152.55C174.412 154.025 174.776 155.499 175.159 156.974C175.446 158.065 173.742 158.525 173.474 157.433C173.091 155.959 172.727 154.484 172.344 153.01C172.056 151.918 173.761 151.458 174.029 152.55Z" fill="white"/>
<path d="M219.93 -1.44122L223.109 0.282349C225.043 1.71866 224.775 2.19743 225.216 4.55298L226.327 11.6005C226.365 11.8303 226.71 11.8303 226.748 11.6005L227.84 4.59128C228.28 2.23573 228.223 1.71866 230.138 0.2632L233.144 -1.46037C233.259 -1.53698 233.259 -1.70933 233.144 -1.80509L229.755 -3.43291C227.859 -4.86922 227.974 -5.82676 227.533 -8.18231L226.748 -14.8276C226.71 -15.0575 226.365 -15.0575 226.327 -14.8276L225.407 -7.93335C224.986 -5.59695 224.737 -4.62026 222.86 -3.18395L219.911 -1.80509C219.815 -1.69018 219.815 -1.51783 219.93 -1.44122Z" fill="white"/>
<path d="M158.018 35.8821C160.642 33.6031 160.891 29.7155 160.393 26.2875C159.914 22.8595 158.88 19.3549 159.646 16.0035C160.412 12.6713 163.859 9.60714 167.364 10.6796C168.187 10.9285 168.953 11.3882 169.815 11.5222C173.109 12.0393 174.583 8.03677 176.709 5.70037C179.16 3.01926 183.776 2.40643 187.07 4.32151C190.383 6.23659 191.991 10.4689 190.708 13.8203C189.904 15.9078 188.41 18.7229 190.459 19.9103C191.072 20.2741 191.8 20.2933 192.509 20.3316C194.673 20.4465 196.913 20.7912 198.771 21.902C200.648 23.0127 202.065 25.0044 201.873 27.0535C201.605 29.8496 198.656 31.4965 196.09 32.8562C193.524 34.2159 190.728 36.2651 191.034 39.0802C191.245 40.8804 192.719 42.4125 193.045 44.1935C193.619 47.3151 190.613 49.843 187.663 51.1644C184.274 52.6773 180.539 53.5391 176.747 53.654C174.622 53.7306 172.419 53.5583 170.409 54.1519C168.398 54.7456 166.54 56.3543 166.559 58.3843L158.018 35.8821Z" fill="#3F3C36"/>
<path d="M146.203 62.6945L130.825 61.6604C134.693 43.2181 152.159 33.2406 163.458 28.6061C169.165 26.2697 173.32 25.293 173.32 25.293L171.616 44.7119L166.905 98.2959C165.947 109.097 156.008 116.642 145.303 114.88C145.13 114.861 144.958 114.823 144.786 114.804C131.878 112.64 125.156 98.2001 131.84 86.9394C138.925 74.9127 146.203 62.6945 146.203 62.6945Z" fill="#CFD9B5"/>
<path d="M180.117 59.0185C176.345 61.2783 171.48 60.0526 169.22 56.2799C166.961 52.5072 168.186 47.6429 171.959 45.3831C175.732 43.1233 180.596 44.349 182.856 48.1217C185.097 51.8944 183.89 56.7779 180.117 59.0185Z" fill="#CFD9B5"/>
<path d="M172.131 51.9718C174.985 51.3782 177.838 50.7845 180.691 50.2291C181.802 50.0185 182.262 51.7037 181.151 51.9144C178.298 52.4698 175.444 53.0634 172.591 53.6571C171.499 53.9061 171.02 52.2017 172.131 51.9718Z" fill="#3F3C36"/>
<path d="M146.183 62.6949L131.629 87.5335L157.578 62.6758L146.183 62.6949Z" fill="#3F3C36"/>
<path d="M155.872 33.6999C151.18 35.481 146.392 37.6833 142.122 40.3261C142.122 39.8282 142.122 39.3111 142.122 38.8132C143.979 39.6558 145.818 40.4793 147.676 41.322C148.71 41.7816 147.81 43.2945 146.795 42.8349C144.937 41.9922 143.099 41.1688 141.241 40.3261C140.609 40.0389 140.724 39.1196 141.241 38.8132C145.646 36.0938 150.567 33.834 155.412 32.0147C156.466 31.6125 156.925 33.2978 155.872 33.6999Z" fill="#3F3C36"/>
<path d="M144.974 44.1758L143.825 46.8186C148.287 49.6529 153.324 51.4914 158.533 52.3532C159.452 51.7978 160.333 51.185 161.156 50.4956C155.373 49.7104 149.762 47.5272 144.974 44.1758Z" fill="white"/>
<path d="M144.554 55.2071C147.504 55.5901 150.529 55.3603 153.383 54.5368C152.54 54.0772 151.659 53.6942 150.702 53.4452C148.48 52.9664 146.086 53.5984 144.554 55.2071Z" fill="#ED7E1C"/>
<path d="M143.847 46.7969L140.61 54.2848C141.893 54.7253 143.234 55.0126 144.575 55.1849C146.088 53.5763 148.501 52.9634 150.722 53.4231C151.68 53.6912 152.56 54.055 153.403 54.5147C155.203 53.9976 156.946 53.2698 158.555 52.3123C153.327 51.4888 148.29 49.6503 143.847 46.7969Z" fill="#3F3C36"/>
<path d="M158.382 38.4089C162.193 37.5471 165.947 38.9643 168.322 42.0475C169.011 42.9476 167.479 43.8094 166.809 42.9285C164.932 40.4963 161.83 39.4239 158.861 40.0942C157.75 40.3623 157.291 38.6578 158.382 38.4089Z" fill="#3F3C36"/>
<path d="M162.463 40.2871C162.329 41.034 162.885 41.8384 163.632 41.9724C164.378 42.1065 165.183 41.5702 165.336 40.8425C164.742 41.3979 163.574 40.9766 163.497 40.1722C164.053 40.1148 164.627 40.3637 164.972 40.8042L162.463 40.2871Z" fill="#3F3C36"/>
<path d="M163.323 40.2879C163.228 41.0923 164.243 41.4561 164.472 40.5944C164.951 40.8816 165.449 41.1689 165.928 41.4561C164.817 42.3562 162.902 41.9349 162.634 40.4029C162.538 39.8283 162.864 39.3113 163.476 39.2921C164.281 39.2538 165.047 39.5794 165.564 40.173C166.311 41.0157 165.085 42.2605 164.319 41.4178C164.07 41.1306 163.84 41.0348 163.457 41.0348C163.745 40.671 164.013 40.2879 164.3 39.9241C164.319 40.039 164.511 40.3454 164.683 40.2113C165.334 39.6751 166.387 40.1539 166.138 41.0731C165.832 42.2222 164.683 43.0457 163.476 42.835C162.308 42.6435 161.427 41.4753 161.561 40.2879C161.619 39.8092 161.925 39.407 162.442 39.407C162.883 39.407 163.381 39.8092 163.323 40.2879Z" fill="#3F3C36"/>
<path d="M161.751 41.3025C163.417 41.2642 164.949 41.877 166.156 43.0069C166.979 43.7729 165.734 45.0177 164.911 44.2517C164.03 43.4282 162.938 43.0452 161.732 43.0644C160.621 43.0835 160.621 41.3216 161.751 41.3025Z" fill="#3F3C36"/>
<path d="M196.415 31.2857C193.466 32.1858 192.049 35.7479 194.347 38.1609C195.209 39.061 196.549 39.3674 197.334 40.3632C198.502 41.857 198.292 43.9253 197.564 45.5531C195.304 50.6664 189.138 51.4132 184.254 51.758C183.124 51.8346 183.124 50.0918 184.254 50.0152C187.95 49.7663 192.125 49.4599 194.806 46.5872C196.511 44.7488 196.894 42.4124 194.845 40.6505C194.002 39.9228 193.217 39.6738 192.508 38.6971C189.961 35.1734 192.049 30.7878 195.936 29.6005C197.028 29.2558 197.507 30.9602 196.415 31.2857Z" fill="#3F3C36"/>
<path d="M191.741 25.5398C188.179 24.678 188.466 20.7329 190.018 18.2242C191.626 15.6005 194.269 13.0726 193.618 9.66374C192.814 5.41226 187.681 4.51217 184.828 7.23159C184.004 8.01677 182.779 6.77197 183.583 5.98678C186.724 2.99926 191.799 3.09501 194.307 6.86772C195.571 8.76365 195.725 11.0426 195.035 13.1875C194.365 15.3132 187.873 22.8203 192.22 23.8545C193.292 24.1035 192.833 25.7887 191.741 25.5398Z" fill="#3F3C36"/>
<path d="M159.53 28.1274C158.937 24.9101 157.06 21.9992 156.83 18.7052C156.639 16.0624 157.5 13.3622 159.09 11.2556C160.411 9.51284 162.575 7.55946 164.893 7.55946C166.233 7.55946 167.038 8.22974 168.129 8.90002C170.504 10.3363 173.242 10.3555 175.062 7.90418C175.732 7.00409 177.245 7.88503 176.575 8.78511C175.445 10.298 174.008 11.313 172.093 11.6194C169.221 12.0791 167.478 9.89586 164.854 9.85756C160.986 9.80011 158.573 14.3005 158.535 17.8818C158.496 21.2906 160.584 24.3547 161.197 27.6678C161.426 28.7594 159.741 29.2382 159.53 28.1274Z" fill="#3F3C36"/>
<path d="M134.041 115.089C141.51 121.141 152.618 122.079 160.833 116.928C168.8 111.929 172.841 101.971 171.06 92.8359C170.849 91.7251 172.534 91.2655 172.745 92.3762C174.66 102.316 170.37 113.021 161.714 118.46C152.79 124.052 140.878 122.883 132.796 116.353C131.915 115.625 133.16 114.381 134.041 115.089Z" fill="#3F3C36"/>
<path d="M139.557 47.5073C143.406 43.3898 148.96 41.5322 154.265 44.0601C159.493 46.5497 162.231 51.9694 162.672 57.5423C162.882 60.166 158.784 60.1468 158.574 57.5423C157.903 48.9053 149.056 43.3324 142.429 50.399C140.648 52.3333 137.757 49.4415 139.557 47.5073Z" fill="#3F3C36"/>
<path d="M167.937 28.6245C170.887 28.95 173.166 31.2673 173.434 34.2356C173.529 35.3655 171.787 35.3464 171.672 34.2356C171.499 32.3014 169.872 30.597 167.937 30.3863C166.827 30.2523 166.827 28.4904 167.937 28.6245Z" fill="#3F3C36"/>
<path d="M173.837 42.9867C168.303 39.9225 162.768 36.8584 157.233 33.7943C157.636 33.6985 158.038 33.5836 158.44 33.4879C156.716 36.9733 156.812 41.5312 159.857 44.2506C164.051 47.985 170.543 46.204 173.512 41.7993C174.144 40.8609 175.657 41.7419 175.025 42.6803C171.597 47.7361 164.511 49.8618 159.397 46.1274C155.089 42.9675 154.667 37.1648 156.908 32.6069C157.119 32.1665 157.712 32.0707 158.114 32.3005C163.649 35.3647 169.184 38.4288 174.718 41.4929C175.714 42.0291 174.814 43.5421 173.837 42.9867Z" fill="#3F3C36"/>
<path d="M151.142 30.0804C145.607 27.0163 140.073 23.9522 134.538 20.888C134.94 20.7923 135.342 20.6774 135.745 20.5816C134.021 24.0671 134.117 28.625 137.162 31.3444C141.356 35.0788 147.848 33.2978 150.816 28.8931C151.448 27.9547 152.961 28.8356 152.329 29.774C148.901 34.8298 141.815 36.9556 136.702 33.2212C132.393 30.0613 131.972 24.2586 134.213 19.7007C134.423 19.2602 135.017 19.1645 135.419 19.3943C140.954 22.4584 146.488 25.5225 152.023 28.5867C153.019 29.1037 152.138 30.6166 151.142 30.0804Z" fill="#3F3C36"/>
<path d="M156.142 36.2676C153.844 35.0419 151.527 33.7971 149.229 32.5715C148.233 32.0352 149.114 30.5223 150.11 31.0586C152.408 32.2842 154.725 33.529 157.023 34.7547C158.019 35.2909 157.138 36.8038 156.142 36.2676Z" fill="#3F3C36"/>
<path d="M142.867 45.0742C134.709 50.1875 127.776 57.867 126.895 67.4615C126.742 69.2425 126.876 71.2151 128.083 72.5365C129.768 74.375 134.996 74.4899 137.466 74.0302C146.582 72.3067 152.538 70.0469 160.716 65.6996C163.665 64.1293 167.208 61.1609 169.199 58.4606C171.191 55.7604 172.034 51.9877 170.482 49.0193C166.92 53.4431 162.324 57.1392 156.981 59.0735C153.17 60.4523 139.803 63.3058 140.013 55.971C140.09 53.4623 141.89 51.0684 143.844 49.4789L142.867 45.0742Z" fill="#3F3C36"/>
<path d="M200.127 83.0211L204.345 85.3304C206.914 87.2392 206.56 87.8754 207.149 91.0331L208.634 100.412C208.681 100.718 209.152 100.718 209.199 100.412L210.66 91.1038C211.25 87.9697 211.179 87.2863 213.724 85.354L217.73 83.0447C217.871 82.9268 217.871 82.6912 217.73 82.5969L213.205 80.429C210.684 78.4967 210.825 77.2242 210.26 74.1136L209.199 65.2298C209.152 64.9234 208.681 64.9234 208.634 65.2298L207.409 74.3964C206.843 77.507 206.537 78.803 204.015 80.7118L200.104 82.5498C199.962 82.6912 199.962 82.9033 200.127 83.0211Z" fill="#FFBD1A"/>
<path d="M94.1543 43.0523L98.3724 45.3617C100.941 47.2704 100.587 47.9067 101.177 51.0643L102.685 60.4195C102.732 60.7259 103.203 60.7259 103.25 60.4195L104.711 51.1115C105.3 47.9774 105.23 47.294 107.775 45.3617L111.781 43.0523C111.922 42.9345 111.922 42.6989 111.781 42.6046L107.256 40.4367C104.735 38.5044 104.876 37.2319 104.311 34.1213L103.274 25.261C103.227 24.9547 102.755 24.9547 102.708 25.261L101.483 34.4277C100.917 37.5382 100.587 38.8343 98.0896 40.743L94.1779 42.581C94.0129 42.7224 94.0129 42.9581 94.1543 43.0523Z" fill="#FFBD1A"/>
</svg>
