<svg width="297" height="236" viewBox="0 0 297 236" fill="none" xmlns="http://www.w3.org/2000/svg">
<path d="M128.229 14.7225C127.922 10.7986 127.987 6.85259 128.537 2.95069C128.955 -0.00329858 124.424 -1.28189 124.006 1.69414C123.391 6.03694 123.193 10.3356 123.545 14.7005C123.765 17.7206 128.471 17.7427 128.229 14.7225Z" fill="#ED7E1C"/>
<path d="M138.413 16.0451C140.128 11.6362 142.306 7.44772 144.879 3.47968C146.528 0.922504 142.459 -1.43627 140.832 1.09886C138.039 5.41961 135.751 9.98286 133.882 14.7886C132.782 17.6324 137.313 18.8448 138.413 16.0451Z" fill="#ED7E1C"/>
<path d="M147.517 20.8083C151.696 18.163 155.391 14.9004 158.471 11.0205C160.34 8.66173 157.019 5.31095 155.15 7.69177C152.312 11.263 149.013 14.3052 145.164 16.7521C142.591 18.3614 144.944 22.4396 147.517 20.8083Z" fill="#ED7E1C"/>
<path d="M178.77 105.656H48.1005C42.162 105.656 37.3672 100.829 37.3672 94.8766V43.1158C37.3672 37.1637 42.184 32.3359 48.1005 32.3359H178.77C184.708 32.3359 189.525 37.1637 189.525 43.1158V94.8987C189.525 100.829 184.708 105.656 178.77 105.656Z" fill="#928D86"/>
<path d="M48.0139 117.251C74.5313 117.251 96.0279 95.7053 96.0279 69.1274C96.0279 42.5495 74.5313 21.0039 48.0139 21.0039C21.4966 21.0039 0 42.5495 0 69.1274C0 95.7053 21.4966 117.251 48.0139 117.251Z" fill="#928D86"/>
<path d="M84.2324 77.952C89.0928 57.9113 76.8237 37.716 56.8287 32.8446C36.8336 27.9731 16.6843 40.2702 11.8239 60.3108C6.96355 80.3515 19.2326 100.547 39.2277 105.418C59.2227 110.29 79.372 97.9926 84.2324 77.952Z" fill="#3F3C36"/>
<path d="M14.0547 69.1282C14.0547 87.6457 28.813 102.702 47.1784 103.143V35.1133C28.813 35.5542 14.0547 50.6107 14.0547 69.1282Z" fill="#FFEBC2"/>
<path d="M48.0155 35.0938C47.7296 35.0938 47.4656 35.1158 47.1797 35.1158V103.146C47.4656 103.146 47.7296 103.168 48.0155 103.168C66.7768 103.168 81.975 87.9348 81.975 69.1307C81.975 50.3266 66.7768 35.0938 48.0155 35.0938Z" fill="#928D86"/>
<path d="M171.314 99.285H118.285C116.019 99.285 114.172 97.4332 114.172 95.1626V42.013C114.172 39.7424 116.019 37.8906 118.285 37.8906H171.314C173.579 37.8906 175.426 39.7424 175.426 42.013V95.1626C175.426 97.4332 173.579 99.285 171.314 99.285Z" fill="#3F3C36"/>
<path d="M125.92 56.8954C129.783 56.8954 132.914 53.7568 132.914 49.8852C132.914 46.0136 129.783 42.875 125.92 42.875C122.057 42.875 118.926 46.0136 118.926 49.8852C118.926 53.7568 122.057 56.8954 125.92 56.8954Z" fill="#FFEBC2"/>
<path d="M144.221 56.8954C148.084 56.8954 151.215 53.7568 151.215 49.8852C151.215 46.0136 148.084 42.875 144.221 42.875C140.358 42.875 137.227 46.0136 137.227 49.8852C137.227 53.7568 140.358 56.8954 144.221 56.8954Z" fill="#FFEBC2"/>
<path d="M169.535 49.8852C169.535 53.7651 166.39 56.8954 162.541 56.8954C158.67 56.8954 155.547 53.743 155.547 49.8852C155.547 46.0053 158.692 42.875 162.541 42.875C166.39 42.875 169.535 46.0053 169.535 49.8852Z" fill="#FFEBC2"/>
<path d="M131.439 72.8816C133.81 69.8245 133.259 65.4202 130.209 63.0442C127.159 60.6681 122.765 61.2202 120.394 64.2772C118.023 67.3343 118.574 71.7386 121.624 74.1147C124.674 76.4907 129.069 75.9386 131.439 72.8816Z" fill="#FFEBC2"/>
<path d="M149.157 73.5429C151.889 70.8052 151.889 66.3667 149.157 63.629C146.426 60.8914 141.997 60.8914 139.266 63.629C136.535 66.3667 136.535 70.8052 139.266 73.5429C141.997 76.2805 146.426 76.2805 149.157 73.5429Z" fill="#FFEBC2"/>
<path d="M169.531 68.5766C169.531 72.4565 166.386 75.5868 162.537 75.5868C158.666 75.5868 155.543 72.4344 155.543 68.5766C155.543 64.6968 158.688 61.5664 162.537 61.5664C166.386 61.5664 169.531 64.7188 169.531 68.5766Z" fill="#FFEBC2"/>
<path d="M132.688 89.0892C133.682 85.3477 131.461 81.5073 127.728 80.5115C123.995 79.5157 120.164 81.7416 119.17 85.4832C118.176 89.2247 120.397 93.0651 124.13 94.0608C127.863 95.0566 131.695 92.8307 132.688 89.0892Z" fill="#FFEBC2"/>
<path d="M151.03 88.9245C151.929 85.1593 149.613 81.3761 145.857 80.4744C142.1 79.5727 138.325 81.894 137.426 85.6591C136.526 89.4243 138.842 93.2075 142.599 94.1092C146.355 95.0109 150.13 92.6897 151.03 88.9245Z" fill="#FFEBC2"/>
<path d="M169.531 87.2955C169.531 91.1753 166.386 94.3057 162.537 94.3057C158.666 94.3057 155.543 91.1533 155.543 87.2955C155.543 83.4156 158.688 80.2853 162.537 80.2853C166.386 80.2632 169.531 83.4156 169.531 87.2955Z" fill="#FFEBC2"/>
<path d="M124.754 46.9091C124.754 48.9372 124.754 50.9432 124.754 52.9713C124.754 54.272 126.777 54.272 126.777 52.9713C126.777 50.9432 126.777 48.9372 126.777 46.9091C126.777 45.6084 124.754 45.6084 124.754 46.9091Z" fill="#3F3C36"/>
<path d="M124.49 49.5984C125.304 49.1575 125.986 48.4741 126.426 47.6585C126.689 47.1735 126.535 46.5562 126.074 46.2696C125.612 46.0051 124.952 46.1594 124.688 46.6224C124.38 47.1955 124.028 47.5482 123.456 47.8348C122.972 48.0993 122.818 48.7607 123.104 49.2236C123.412 49.7086 124.028 49.8409 124.49 49.5984Z" fill="#3F3C36"/>
<path d="M143.271 47.813C143.579 46.7769 144.657 47.2839 144.525 48.1657C144.437 48.7168 143.887 49.2238 143.535 49.6206C142.81 50.3922 142.062 51.1197 141.336 51.8692C140.742 52.4644 141.16 53.6328 142.04 53.5887C143.579 53.5005 145.097 53.5226 146.637 53.5887C147.934 53.6548 147.934 51.6488 146.637 51.5826C145.097 51.4944 143.579 51.4944 142.04 51.5826C142.282 52.1558 142.524 52.7289 142.744 53.3021C144.305 51.7149 147.626 49.2679 146.285 46.6446C145.119 44.352 142.018 45.0574 141.358 47.306C140.962 48.5184 142.898 49.0695 143.271 47.813Z" fill="#3F3C36"/>
<path d="M162.516 47.1928C163.308 46.4874 163.66 46.6197 163.638 47.5676C163.418 48.0305 163.066 48.251 162.56 48.251C161.284 48.3392 161.262 50.3011 162.56 50.2791C163.506 50.2571 164.121 51.1829 163.418 51.9545C162.714 52.726 161.768 52.219 161.218 51.5797C160.382 50.5877 158.953 52.0206 159.789 53.0126C161.328 54.8423 164.275 54.8203 165.419 52.5497C166.475 50.4775 164.781 48.1848 162.56 48.251C162.56 48.9344 162.56 49.5957 162.56 50.2791C164.737 50.1468 166.541 47.9865 165.243 45.8702C164.011 43.8641 161.108 44.4813 160.558 46.6638C160.272 47.8983 162.208 48.4494 162.516 47.1928Z" fill="#3F3C36"/>
<path d="M124.202 64.632C123.608 66.0428 123.015 67.4757 122.421 68.8866C122.157 69.5038 122.795 70.1652 123.388 70.1652C124.488 70.1431 125.566 70.1431 126.666 70.1211C127.963 70.099 127.963 68.093 126.666 68.115C125.566 68.1371 124.488 68.1371 123.388 68.1591C123.718 68.578 124.026 69.0189 124.356 69.4377C124.95 68.0269 125.544 66.594 126.138 65.1831C126.358 64.6761 125.918 64.0809 125.434 63.9486C124.862 63.7502 124.422 64.1249 124.202 64.632Z" fill="#3F3C36"/>
<path d="M125.656 66.6591C125.656 68.3786 125.656 70.098 125.656 71.8175C125.656 73.1182 127.658 73.1182 127.658 71.8175C127.658 70.098 127.658 68.3786 127.658 66.6591C127.68 65.3584 125.656 65.3584 125.656 66.6591Z" fill="#3F3C36"/>
<path d="M142.567 66.5492C143.381 66.5492 144.217 66.5492 145.03 66.5492C146.328 66.5492 146.328 64.5431 145.03 64.5431C144.217 64.5431 143.381 64.5431 142.567 64.5431C141.269 64.5211 141.269 66.5492 142.567 66.5492Z" fill="#3F3C36"/>
<path d="M141.555 65.975C141.555 66.7907 141.555 67.6284 141.555 68.444C141.555 69.7447 143.578 69.7447 143.578 68.444C143.578 67.6284 143.578 66.7907 143.578 65.975C143.578 64.6964 141.555 64.6744 141.555 65.975Z" fill="#3F3C36"/>
<path d="M143.096 70.1653C143.602 69.9669 144.24 69.7024 144.768 69.9669C145.054 70.1213 145.362 70.4519 145.164 70.7826C144.834 71.3337 143.558 71.2455 143.03 71.2235C141.733 71.1794 141.733 73.1855 143.03 73.2516C144.68 73.3177 146.901 72.9209 147.209 70.9589C147.363 69.9229 146.835 68.8868 145.956 68.3356C144.922 67.6743 143.646 67.7845 142.568 68.2254C142.063 68.4459 141.711 68.8868 141.865 69.4599C141.975 69.9449 142.59 70.3637 143.096 70.1653Z" fill="#3F3C36"/>
<path d="M162.054 65.2037C161.196 66.7469 159.745 68.5545 159.723 70.4063C159.723 71.773 160.58 73.0957 162.01 73.228C165.155 73.4925 165.661 68.797 162.56 68.3561C161.284 68.1798 160.756 70.1197 162.032 70.2961C162.45 70.3622 163.088 70.9574 162.428 71.1999C161.548 71.5085 161.79 70.0095 161.922 69.6568C162.362 68.4664 163.154 67.3421 163.792 66.2398C164.429 65.0935 162.692 64.0795 162.054 65.2037Z" fill="#3F3C36"/>
<path d="M123.984 85.8601C125.369 85.8601 126.755 85.8822 128.163 85.8822C127.877 85.3752 127.591 84.8681 127.283 84.3611C126.359 86.3451 125.523 88.3512 124.754 90.4013C124.314 91.6138 126.249 92.1429 126.689 90.9304C127.393 89.0346 128.163 87.1828 128.999 85.3752C129.306 84.6918 128.933 83.8541 128.141 83.8541C126.755 83.8541 125.369 83.832 123.962 83.832C122.686 83.8541 122.686 85.8601 123.984 85.8601Z" fill="#3F3C36"/>
<path d="M48.0136 87.78C58.2901 87.78 66.6209 79.4302 66.6209 69.1303C66.6209 58.8303 58.2901 50.4805 48.0136 50.4805C37.737 50.4805 29.4062 58.8303 29.4062 69.1303C29.4062 79.4302 37.737 87.78 48.0136 87.78Z" fill="#3F3C36"/>
<path d="M52.7664 47.7453C52.5684 44.5268 52.6344 41.3303 52.9423 38.1118C53.0743 36.8111 51.0508 36.8332 50.9408 38.1118C50.6109 41.3082 50.5449 44.5268 50.7649 47.7453C50.8309 49.0239 52.8544 49.0459 52.7664 47.7453Z" fill="#FFEBC2"/>
<path d="M50.2148 90.6903C50.2148 94.0632 50.2148 97.436 50.2148 100.787C50.2148 102.087 52.2163 102.087 52.2163 100.787C52.2163 97.4139 52.2163 94.0411 52.2163 90.6903C52.2163 89.3897 50.2148 89.3897 50.2148 90.6903Z" fill="#FFEBC2"/>
<path d="M87.5162 38.1336C93.0588 38.1336 98.6014 38.1336 104.144 38.1336C105.442 38.1336 105.442 36.1055 104.144 36.1055C98.6014 36.1055 93.0588 36.1055 87.5162 36.1055C86.2186 36.1275 86.2186 38.1336 87.5162 38.1336Z" fill="#FFEBC2"/>
<path d="M104.276 80.2627H95.192C93.2345 80.2627 91.6289 78.6534 91.6289 76.6914V55.2861C91.6289 53.3241 93.2345 51.7148 95.192 51.7148H104.276C106.233 51.7148 107.839 53.3241 107.839 55.2861V76.6914C107.839 78.6534 106.233 80.2627 104.276 80.2627Z" fill="#3F3C36"/>
<path d="M91.5433 68.5782C91.5433 75.0373 71.8582 80.2619 47.5763 80.2619C23.2944 80.2619 3.60938 75.0373 3.60938 68.5782C3.60938 62.1191 23.2944 56.8945 47.5763 56.8945C71.8582 56.9166 91.5433 62.1412 91.5433 68.5782Z" fill="#928D86"/>
<path d="M90.5298 68.5766C90.3318 72.2801 83.9094 74.1759 81.1821 75.0577C74.6717 77.1519 67.7875 78.1219 61.0132 78.6951C46.0789 79.9737 30.023 79.7091 15.5286 75.5206C12.4274 74.6389 6.15895 73.0737 4.83928 69.5245C3.5416 66.0194 9.48011 63.7488 11.8115 62.867C25.2062 57.7526 40.9542 57.444 55.0747 58.0833C63.0367 58.436 71.1086 59.2958 78.8067 61.4121C81.9739 62.2718 90.3098 64.2338 90.5298 68.5766C90.5957 69.8772 92.6192 69.8772 92.5313 68.5766C92.3333 64.7849 88.2203 62.7347 85.1631 61.4341C78.4548 58.5903 71.0207 57.4661 63.8285 56.7165C53.9749 55.6804 43.9894 55.5923 34.1139 56.452C26.4379 57.1134 18.4978 58.1715 11.2397 60.9271C8.18244 62.0954 3.47562 63.9913 2.68382 67.6507C1.89202 71.2881 5.71905 73.735 8.49036 75.0797C14.3629 77.9235 21.0492 79.1139 27.4496 79.9957C37.3691 81.3404 47.4646 81.605 57.4501 80.9877C66.0499 80.4586 74.9797 79.4446 83.1396 76.5127C86.6807 75.2341 92.2673 73.0737 92.5093 68.5986C92.6192 67.298 90.6177 67.298 90.5298 68.5766Z" fill="#3F3C36"/>
<path d="M14.3188 67.5849C18.6737 65.6009 23.2485 64.5648 28.0213 64.4326C29.319 64.3885 29.319 62.3824 28.0213 62.4265C22.8746 62.5588 17.9699 63.7271 13.285 65.8434C12.1193 66.3945 13.1531 68.1361 14.3188 67.5849Z" fill="#FFEBC2"/>
<path d="M35.1017 63.6597C46.6708 62.7118 58.2619 62.7559 69.831 63.77C71.1287 63.8802 71.1067 61.8741 69.831 61.7639C58.2619 60.7498 46.6708 60.7278 35.1017 61.6537C33.8261 61.7639 33.8041 63.77 35.1017 63.6597Z" fill="#FFEBC2"/>
<path d="M258.744 290.081C211.764 255.294 157.086 188.058 151.895 150.428C151.587 148.157 148.662 147.452 147.298 149.281C142.174 156.203 134.718 165.506 130.561 168.063C130.033 168.394 129.483 168.659 128.867 168.791C125.964 169.496 124.842 167.27 124.512 165.242C123.874 161.207 125.436 157.173 126.976 153.36C131.858 141.345 136.741 129.331 142.02 117.493C143.449 114.296 144.967 111.034 147.43 108.543C154.623 101.312 168.193 100.871 176.067 107.33C166.588 100.849 160.935 96.6607 156.008 94.1036C148.024 89.9812 144.703 89.386 130.737 87.6886C124.952 88.4601 121.015 81.3838 125.216 77.3276C126.932 75.6742 129.153 74.4397 132.012 74.6381C168.567 76.9969 174.352 84.8228 204.088 105.743C197.71 99.0416 191.881 91.8109 186.669 84.1614C185.965 83.1253 185.591 81.8908 185.767 80.6563C186.471 75.7183 194.367 76.9087 197.776 80.4138C271.457 156.181 285.05 178.821 358.071 230.075L258.744 290.081Z" fill="#F6A460"/>
<path d="M223.003 116.945C215.525 111.742 208.464 105.989 201.822 99.7281C200.876 98.8464 199.447 100.257 200.392 101.161C207.145 107.532 214.359 113.396 221.969 118.709C223.047 119.414 224.058 117.673 223.003 116.945Z" fill="#4F3422"/>
<path d="M201.314 84.1641C197.157 85.2443 192.78 82.7533 191.592 78.6089C191.24 77.3744 189.283 77.9035 189.657 79.138C191.152 84.3184 196.651 87.4708 201.864 86.1041C203.117 85.7954 202.567 83.8335 201.314 84.1641Z" fill="#4F3422"/>
<path d="M194.803 119.765C187.369 114.364 179.935 108.963 172.523 103.562C171.467 102.791 170.477 104.554 171.511 105.304C178.945 110.705 186.379 116.106 193.792 121.507C194.847 122.256 195.859 120.515 194.803 119.765Z" fill="#4F3422"/>
<path d="M179.936 130.765C174.459 125.144 168.322 119.853 161.064 116.701C156.335 114.65 150.727 113.085 145.954 115.819C139.488 119.5 135.133 128.252 133.307 135.24C132.977 136.497 134.913 137.026 135.243 135.769C136.848 129.575 140.521 122.212 145.712 118.376C150.683 114.695 156.995 116.855 162.032 119.368C168.3 122.498 173.645 127.194 178.506 132.176C179.43 133.124 180.837 131.691 179.936 130.765Z" fill="#4F3422"/>
<path d="M169.62 146.286C163.131 140.532 157.347 131.207 148.043 129.929C139.619 128.782 131.085 136.3 129.568 144.346C129.326 145.625 131.261 146.154 131.503 144.875C133.131 136.278 142.896 129.179 151.386 132.971C158.249 136.035 162.713 142.847 168.19 147.697C169.158 148.556 170.587 147.146 169.62 146.286Z" fill="#4F3422"/>
<path d="M128.14 155.587C129.988 159.159 128.338 163.898 124.599 165.441C123.411 165.926 123.939 167.888 125.127 167.381C130.098 165.331 132.363 159.379 129.878 154.551C129.284 153.427 127.546 154.441 128.14 155.587Z" fill="#4F3422"/>
<path d="M135.573 75.3912C133.461 78.7861 128.535 79.8002 125.301 77.3532C124.29 76.5816 122.86 78.0145 123.894 78.8082C128.183 82.0487 134.451 80.9685 137.31 76.3612C138.014 75.281 136.255 74.289 135.573 75.3912Z" fill="#4F3422"/>
<path d="M210.84 118.729C209.477 120.317 208.135 121.904 206.771 123.491C205.936 124.461 207.343 125.894 208.201 124.924C209.565 123.337 210.906 121.75 212.27 120.162C213.106 119.17 211.698 117.737 210.84 118.729Z" fill="white"/>
<path d="M200.127 135.066C198.059 136.367 196.542 138.197 195.618 140.445C195.112 141.636 197.07 142.165 197.553 140.974C198.279 139.233 199.555 137.8 201.139 136.808C202.238 136.124 201.227 134.383 200.127 135.066Z" fill="white"/>
<path d="M188.714 149.042C187.548 150.982 186.36 152.922 185.195 154.862C184.513 155.964 186.251 156.978 186.932 155.876C188.098 153.936 189.286 151.996 190.451 150.056C191.133 148.954 189.396 147.94 188.714 149.042Z" fill="white"/>
<path d="M251.331 294.029C230.678 278.025 212.445 258.912 197.379 237.551C196.411 236.184 196.851 234.266 198.324 233.495C213.962 225.316 269.455 180.742 282.541 167.691C291.955 181.05 342.894 220.577 364.691 233.715L251.331 294.029Z" fill="#9BB168"/>
<path d="M290.879 192.734C290.879 196.46 287.865 199.48 284.148 199.48C280.431 199.48 277.418 196.46 277.418 192.734C277.418 189.009 280.431 185.988 284.148 185.988C287.843 185.966 290.879 188.986 290.879 192.734Z" fill="white"/>
<path d="M302.433 209.141C305.062 206.507 305.062 202.236 302.433 199.601C299.805 196.967 295.544 196.967 292.915 199.601C290.287 202.236 290.287 206.507 292.915 209.141C295.544 211.775 299.805 211.775 302.433 209.141Z" fill="white"/>
</svg>
