<svg width="359" height="305" viewBox="0 0 359 305" fill="none" xmlns="http://www.w3.org/2000/svg">
<circle cx="317.883" cy="207.984" r="97" fill="white"/>
<path d="M231.264 174.341C230.31 173.76 229.379 173.135 228.502 172.434C227.866 171.93 226.486 171.064 226.168 170.308C225.51 168.752 228.031 169.508 228.929 169.65C230.014 169.826 231.099 170.023 232.184 170.231C232.524 170.297 232.754 169.979 232.611 169.683C231.307 166.867 230.453 163.93 229.992 160.862C229.806 161.004 229.62 161.146 229.444 161.289C231.647 162.911 233.828 164.566 235.976 166.253C236.261 166.472 236.71 166.286 236.6 165.892C236.02 163.656 235.976 161.464 236.491 159.218C236.283 159.273 236.074 159.327 235.866 159.382C237.51 161.136 239.154 162.878 240.797 164.631C241.126 164.982 241.663 164.456 241.334 164.094C239.691 162.341 238.047 160.599 236.403 158.845C236.217 158.648 235.833 158.736 235.778 159.01C235.231 161.388 235.263 163.733 235.888 166.089C236.096 165.968 236.305 165.848 236.513 165.727C234.31 163.996 232.085 162.308 229.828 160.642C229.532 160.423 229.236 160.785 229.28 161.07C229.74 164.204 230.639 167.196 231.965 170.067C232.107 169.88 232.25 169.694 232.392 169.519C230.584 169.168 228.776 168.839 226.957 168.609C226.201 168.511 225.182 168.324 224.93 169.256C224.656 170.286 226.058 171.283 226.672 171.853C227.965 173.047 229.39 174.078 230.891 174.998C231.296 175.239 231.68 174.593 231.264 174.341Z" fill="#FFBD1A"/>
<path d="M299.039 131.36C298.7 129.07 298.678 126.812 298.941 124.511C298.722 124.598 298.513 124.686 298.294 124.774C300.037 126.681 301.768 128.598 303.511 130.505C303.719 130.735 304.037 130.582 304.135 130.341C305.187 127.82 306.678 125.596 308.595 123.656C308.387 123.601 308.179 123.546 307.971 123.492C308.288 125.486 308.606 127.492 308.924 129.486C308.979 129.848 309.439 129.804 309.614 129.574C311.171 127.459 313.066 125.705 315.302 124.314C315.116 124.204 314.929 124.094 314.732 123.985C314.601 126.133 314.272 128.226 313.757 130.308C313.636 130.779 314.359 130.976 314.48 130.505C315.017 128.357 315.346 126.187 315.488 123.974C315.51 123.689 315.159 123.503 314.918 123.645C312.573 125.103 310.601 126.955 308.968 129.168C309.198 129.201 309.428 129.223 309.658 129.256C309.34 127.261 309.023 125.256 308.705 123.262C308.661 122.977 308.256 122.911 308.08 123.097C306.064 125.135 304.53 127.47 303.423 130.111C303.631 130.056 303.839 130.001 304.047 129.946C302.305 128.039 300.574 126.122 298.831 124.215C298.59 123.952 298.218 124.182 298.185 124.478C297.922 126.845 297.966 129.168 298.316 131.524C298.382 132.028 299.105 131.831 299.039 131.36Z" fill="#FFBD1A"/>
<path d="M294.506 284.504C295.218 287.288 295.93 290.082 296.643 292.866C296.719 293.162 297.191 293.249 297.333 292.953C298.462 290.641 299.601 288.329 300.73 286.017C300.533 286.039 300.336 286.071 300.138 286.093C302.253 288.197 304.697 289.808 307.459 290.937C307.722 291.047 308.007 290.729 307.919 290.477C307.119 288.219 306.801 285.918 306.955 283.529C306.801 283.65 306.637 283.77 306.483 283.891C308.533 284.417 310.571 284.943 312.62 285.48C312.949 285.567 313.201 285.217 313.047 284.932C311.689 282.357 310.319 279.781 308.96 277.206C308.73 276.779 308.083 277.162 308.313 277.59C309.672 280.165 311.042 282.74 312.401 285.315C312.543 285.129 312.686 284.943 312.828 284.767C310.779 284.241 308.741 283.715 306.692 283.178C306.439 283.113 306.231 283.299 306.22 283.54C306.067 286.006 306.396 288.362 307.207 290.696C307.36 290.543 307.513 290.389 307.667 290.236C305.026 289.151 302.703 287.595 300.675 285.589C300.511 285.425 300.193 285.447 300.084 285.666C298.955 287.978 297.815 290.29 296.686 292.603C296.917 292.636 297.147 292.658 297.377 292.69C296.665 289.907 295.952 287.113 295.24 284.329C295.108 283.836 294.385 284.033 294.506 284.504Z" fill="#FFBD1A"/>
<path d="M396.066 256.835C392.592 260.89 381.656 257.24 371.64 248.671C361.624 240.101 356.309 229.866 359.783 225.811C363.256 221.757 374.193 225.406 384.209 233.976C394.225 242.545 399.54 252.78 396.066 256.835Z" fill="#4F3422"/>
<path d="M324.957 260.452C321.483 264.507 310.546 260.858 300.53 252.288C290.514 243.719 285.199 233.483 288.673 229.429C292.147 225.374 303.084 229.023 313.1 237.593C323.116 246.151 328.431 256.387 324.957 260.452Z" fill="#4F3422"/>
<path d="M357.056 184.981C361.593 179.304 370.831 172.806 377.789 170.735C384.759 168.664 392.868 169.705 398.348 174.472C404.506 179.841 406.325 188.63 406.577 196.794C407.147 214.415 402.019 237.198 397.131 254.14C394.83 247.006 387.499 236.442 381.307 232.212C375.116 227.971 366.787 226.557 359.927 229.604C355.051 231.774 351.281 235.971 348.859 240.727C346.437 245.472 346.985 219.402 346.251 224.673C343.829 224.037 341.188 231.259 338.766 230.623C338.766 230.623 328.542 251.532 325.638 258.863C322.329 251.192 313.682 242.962 305.88 239.938C298.088 236.913 289.661 236.015 281.344 235.138C285.409 227.84 289.497 220.53 292.795 212.859C294.593 208.695 296.16 204.421 298.297 200.421C306.132 185.748 322.416 175.502 339.029 176.455C346.865 176.904 355.105 180.225 358.919 187.085L357.056 184.981Z" fill="#FFBD1A"/>
<path d="M319.828 253.888C316.102 266.929 304.826 277.514 291.577 280.396C284.607 281.92 277.155 280.901 272.553 274.961C261.934 261.285 268.739 239.445 272.936 224.694C278.065 206.668 285.034 184.597 295.938 169.354C295.938 169.354 293.22 165.804 290.481 159.163C289.199 156.04 289.034 152.489 290.24 149.344C291.445 146.199 295.259 143.919 298.316 145.322C297.198 143.689 298.568 141.311 300.42 140.654C302.283 139.996 304.332 140.522 306.228 141.059C304.99 139.974 305.615 137.75 307.028 136.906C308.442 136.062 310.228 136.238 311.828 136.61C316.211 137.64 320.255 140.029 323.345 143.295C325.088 145.136 323.334 148.127 320.891 147.47C317.669 146.604 314.754 145.541 312.431 144.424C313.439 145.092 316.431 147.24 319.115 149.486C321.252 151.262 319.367 154.67 316.715 153.815C314.622 153.146 312.716 152.336 311.894 151.788C315.828 155.875 319.828 160.083 322.129 165.267C326.666 175.458 323.882 187.249 321.143 198.054C317.318 213.177 314.085 231.686 310.71 246.918C310.721 246.918 316.869 249.899 319.828 253.888Z" fill="#F6A460"/>
<path d="M319.337 175.927C321.025 170.087 322.625 163.533 319.436 158.273C317.102 154.427 312.477 152.082 307.776 151.611C303.075 151.139 298.319 152.334 294.067 154.263C290.692 155.797 287.536 157.791 284.895 160.29C277.574 167.205 274.835 177.199 269.356 185.472C266.802 189.33 262.452 193.22 257.772 192.036C255.701 191.51 254.057 190.064 252.151 189.132C247.975 187.083 242.737 187.664 238.54 189.691C234.343 191.719 231.023 195.006 227.998 198.414C222.376 204.759 217.379 212.036 216.338 220.222C215.297 228.408 219.166 237.591 227.209 240.955C229.861 242.073 232.787 242.5 235.658 242.917C241.839 243.826 248.797 245.251 252.03 250.281C253.542 252.626 254.046 255.552 256.096 257.513C257.367 258.719 259.098 259.42 260.863 259.815C267.032 261.174 273.52 259.037 278.933 255.957C282.407 253.985 285.706 251.53 287.7 248.21C290.374 243.772 290.385 238.424 291.119 233.372C291.667 229.668 292.631 226.008 294.012 222.49C294.637 220.901 295.371 219.301 296.642 218.118C297.913 216.923 299.853 216.211 301.563 216.748C302.582 217.066 303.415 217.778 304.412 218.172C306.625 219.049 309.244 218.162 311.085 216.726C316.335 212.638 316.718 205.34 316.444 198.951C316.17 192.562 315.918 185.429 320.466 180.673L319.337 175.927Z" fill="#4F3422"/>
<path d="M297.134 154.876C286.46 152.071 276.356 160.52 271.326 169.166C268.729 173.648 266.735 178.744 262.812 182.294C258.231 186.437 251.82 186.985 245.979 185.922C243.075 185.396 240.38 184.267 237.53 183.566C234.911 182.919 232.468 183.27 230.035 184.398C225.082 186.7 220.304 189.954 217.422 194.677C214.441 199.565 211.778 205.592 211.066 211.291C210.408 216.573 211.537 222.063 214.233 226.654C217.071 231.476 221.63 235.224 226.868 237.142C233.41 239.542 240.478 238.654 247.218 237.755C247.689 237.69 247.7 236.944 247.218 236.999C241.3 237.788 235.142 238.61 229.268 237.098C224.161 235.783 219.526 232.682 216.348 228.473C212.983 224.013 211.329 218.348 211.668 212.781C212.03 206.951 214.66 201.033 217.509 196.003C220.337 190.984 224.994 187.609 230.144 185.166C233.443 183.598 236.325 183.872 239.7 185.001C242.21 185.834 244.741 186.535 247.371 186.886C251.864 187.478 256.642 187.116 260.631 184.804C264.532 182.535 266.987 178.678 269.091 174.821C271.885 169.692 274.548 164.761 279.074 160.903C283.94 156.75 290.493 153.901 296.926 155.589C297.397 155.731 297.605 155.008 297.134 154.876Z" fill="#4F3422"/>
<path d="M231.789 238.195C235.778 239.072 239.34 241.253 241.97 244.376C244.961 247.937 245.652 251.882 246.529 256.299C247.241 259.915 248.874 262.896 252.15 264.748C255.219 266.49 258.945 267.235 262.429 267.476C268.928 267.915 275.722 266.052 280.752 261.822C287.119 256.452 288.467 248.387 288.565 240.464C288.631 235.182 288.368 229.922 288.883 224.651C289.398 219.369 291.371 213.243 297.146 211.752C297.617 211.632 297.42 210.909 296.949 211.029C288.521 213.199 287.93 223.588 287.798 230.689C287.623 239.444 289.058 249.472 283.93 257.175C279.809 263.367 272.369 266.567 265.092 266.786C261.312 266.896 257.29 266.304 253.827 264.77C251.997 263.959 250.287 262.797 249.137 261.142C247.756 259.17 247.361 256.759 246.956 254.436C246.244 250.315 245.005 246.677 242.189 243.499C239.504 240.475 235.932 238.36 231.987 237.483C231.515 237.362 231.318 238.097 231.789 238.195Z" fill="#4F3422"/>
<path d="M289.004 216.137C292.456 214.854 294.79 218.372 296.258 220.914C297.431 222.931 298.669 224.925 300.872 225.911C305.167 227.84 309.233 225.353 311.479 221.671C316.422 213.572 316.553 201.989 310.69 194.362C310.395 193.978 309.748 194.362 310.044 194.746C315.819 202.252 315.709 213.857 310.57 221.714C309.08 223.994 306.833 225.857 303.984 225.846C300.948 225.835 298.932 223.917 297.453 221.462C295.655 218.482 293.08 213.835 288.817 215.424C288.357 215.578 288.554 216.301 289.004 216.137Z" fill="#4F3422"/>
<path d="M295.359 156.169C288.707 150.262 279.141 151.786 272.04 155.972C267.875 158.427 264.128 161.659 260.697 165.045C257.004 168.706 253.443 174.645 247.832 175.303C244.862 175.653 241.334 173.845 241.498 170.459C241.575 169.034 242.474 167.478 243.953 167.16C245.641 166.799 247.503 168.015 247.613 169.758C247.646 170.24 248.391 170.24 248.369 169.758C248.139 166.108 243.131 165.21 241.378 168.3C239.131 172.245 242.967 176.037 246.857 176.135C252.84 176.289 256.698 170.207 260.391 166.448C264.741 161.999 269.683 157.692 275.393 155.084C281.617 152.246 289.453 151.928 294.844 156.717C295.195 157.024 295.732 156.498 295.359 156.169Z" fill="#4F3422"/>
<path d="M310.469 153.353C313.976 152.86 317.297 154.942 320.716 155.424C323.313 155.786 325.965 155.665 328.529 155.106C333.778 153.978 338.479 150.997 342.008 146.975C344.89 143.688 348.846 138.658 346.391 134.208C344.353 130.526 339.422 126.198 334.885 126.691C333 126.888 331.466 128.422 331.926 130.417C332.397 132.455 334.644 133.113 336.364 132.203C336.792 131.973 336.408 131.326 335.981 131.557C333.099 133.069 331.181 128.729 334.151 127.611C335.334 127.162 336.715 127.502 337.866 127.918C340.419 128.85 342.72 130.581 344.43 132.674C345.482 133.967 346.6 135.622 346.545 137.365C346.501 138.822 345.679 140.225 344.989 141.463C343.75 143.699 342.216 145.77 340.43 147.589C336.562 151.534 331.444 154.23 325.91 154.778C323.083 155.062 320.277 154.778 317.571 153.945C315.127 153.2 312.88 152.279 310.283 152.641C309.79 152.695 309.998 153.419 310.469 153.353Z" fill="#4F3422"/>
<path d="M305.933 183.567C306.777 185.276 307.884 186.909 309.341 188.389L314.196 182.055L320.979 196.016C323.379 200.958 329.757 202.437 334.042 198.996C334.107 198.942 334.184 198.887 334.25 198.821C338.315 195.523 338.447 189.353 334.579 185.824L305.835 159.645C305.835 159.645 301.024 172.576 305.637 182.92L305.933 183.567Z" fill="#F6A460"/>
<path d="M305.641 182.922C306.813 179.109 308.873 173.816 312.281 176.106C312.687 176.281 312.205 178.484 311.449 179.12C309.421 180.424 307.361 181.826 305.936 183.569L305.641 182.922Z" fill="#F6A460"/>
<path d="M305.619 183.754C306.539 185.562 307.679 187.184 309.082 188.652C309.268 188.85 309.531 188.762 309.674 188.576C311.295 186.461 312.906 184.357 314.528 182.242C314.309 182.242 314.09 182.242 313.882 182.242C315.953 186.504 318.024 190.767 320.095 195.019C321.202 197.288 322.528 199.26 324.906 200.378C328.139 201.89 331.788 201.298 334.538 199.085C334.911 198.778 334.385 198.252 334.001 198.548C330.758 201.167 326.046 201.101 323.01 198.164C321.607 196.805 320.873 194.899 320.029 193.167C318.199 189.398 316.358 185.628 314.528 181.858C314.386 181.573 314.035 181.661 313.882 181.858C312.26 183.973 310.649 186.077 309.027 188.192C309.224 188.17 309.421 188.137 309.619 188.115C308.26 186.691 307.164 185.124 306.276 183.37C306.046 182.943 305.4 183.327 305.619 183.754Z" fill="#4F3422"/>
<path d="M305.474 159.547C302.768 166.878 302.198 175.864 305.321 183.108C305.507 183.546 306.165 183.174 305.968 182.724C302.932 175.667 303.579 166.867 306.198 159.744C306.362 159.295 305.639 159.098 305.474 159.547Z" fill="#4F3422"/>
<path d="M305.641 182.92C305.739 183.139 305.838 183.347 305.936 183.566C306.287 183.139 306.671 182.723 307.098 182.339C307.986 179.632 309.684 177.309 312.424 176.498C312.413 176.301 312.369 176.158 312.281 176.115C308.873 173.813 306.813 179.106 305.641 182.92Z" fill="#4F3422"/>
<path d="M307.094 182.34C308.376 181.146 309.921 180.105 311.444 179.118C312.036 178.625 312.452 177.19 312.42 176.488C309.68 177.31 307.981 179.622 307.094 182.34Z" fill="#ED7E1C"/>
<path d="M322.328 166.374C322.219 168.642 320.301 170.396 318.033 170.297C315.764 170.187 314.011 168.27 314.109 166.001C314.219 163.733 316.137 161.98 318.405 162.078C320.685 162.177 322.438 164.095 322.328 166.374Z" fill="#F6A460"/>
<path d="M317.804 168.03C318.363 166.628 318.922 165.225 319.503 163.833C319.689 163.384 318.966 163.198 318.779 163.636C318.199 165.028 317.64 166.43 317.081 167.833C316.895 168.282 317.629 168.48 317.804 168.03Z" fill="#4F3422"/>
<path d="M314.199 182.057L320.73 195.448L317.454 177.137L314.199 182.057Z" fill="#4F3422"/>
<path d="M308.5 170.088C308.007 171.239 307.525 172.389 307.032 173.54C306.9 173.847 307.196 174.296 307.547 174.055C308.139 173.639 308.774 173.354 309.476 173.189C309.947 173.08 309.75 172.357 309.278 172.466C308.511 172.641 307.81 172.959 307.163 173.409C307.339 173.584 307.503 173.748 307.678 173.924C308.172 172.773 308.654 171.622 309.147 170.472C309.333 170.033 308.687 169.65 308.5 170.088Z" fill="#4F3422"/>
<path d="M304.542 171.647C304.246 174.091 303.95 176.523 303.654 178.967C303.632 179.164 303.84 179.362 304.027 179.34C304.684 179.285 305.396 178.868 305.999 178.627C306.437 178.452 306.251 177.718 305.802 177.904C305.276 178.112 304.585 178.551 304.027 178.594C304.147 178.715 304.279 178.847 304.399 178.967C304.695 176.523 304.991 174.091 305.287 171.647C305.353 171.165 304.596 171.165 304.542 171.647Z" fill="#4F3422"/>
<path d="M306.362 166.538C307.173 167.294 308.246 167.666 309.353 167.524C309.824 167.458 309.835 166.713 309.353 166.768C308.433 166.888 307.578 166.636 306.899 166.001C306.537 165.683 306.011 166.209 306.362 166.538Z" fill="#4F3422"/>
<path d="M391.773 250.886C386.973 261.329 377.944 269.767 367.182 273.833C358.536 277.098 347.632 277.109 341.266 270.436C337.047 266.019 335.688 259.642 334.975 253.571C334.417 248.771 334.143 243.949 334.175 239.116C334.197 235.248 334.406 231.369 334.296 227.5C334.022 217.835 333.233 207.797 330.965 198.395C328.181 186.844 323.557 175.228 315.13 166.845C314.976 166.692 314.823 166.56 314.68 166.429C313.354 165.278 314.406 163.108 316.138 163.393C317.168 163.568 318.22 163.897 318.965 164.533C322.527 167.546 322.625 166.44 327.721 171.086C324.05 168.193 320.751 164.84 317.924 161.125C317.146 160.095 318.034 158.615 319.305 158.878C322.757 159.602 329.507 164.5 333.408 166.988C333.408 166.988 323.239 158.396 323.239 157.267C323.239 155.393 326.209 156.128 328.4 157.18C332.729 159.273 338.92 163.13 343.972 166.615C345.035 167.349 346.219 165.859 345.254 164.993C342.679 162.681 339.348 160.807 337.145 160.796C336.729 160.796 336.323 160.741 335.951 160.566C333.934 159.602 335.019 157.728 336.356 157.421C337.31 157.202 341.32 157.519 342.23 157.881C350.427 161.136 353.035 164.533 359.588 174.143C363.478 179.853 366.054 186.34 368.158 192.915C372.914 207.775 377.604 221.988 378.075 237.582C384.256 239.872 389.735 245.757 391.773 250.886Z" fill="#F6A460"/>
<path d="M334.777 247.302C334.316 239.675 334.864 232.037 334.546 224.41C334.251 217.079 333.626 209.748 332.234 202.537C329.801 189.924 325.188 176.817 316.158 167.371C315.435 166.615 313.933 165.596 314.657 164.423C315.413 163.196 317.451 163.985 318.372 164.577C319.358 165.212 320.213 166.056 321.21 166.692C323.435 168.127 325.484 169.574 327.456 171.36C327.632 171.185 327.807 171.009 327.993 170.823C325.703 169.004 323.555 167.031 321.572 164.884C321.046 164.314 320.531 163.733 320.026 163.13C319.698 162.747 318.251 161.344 318.262 160.928C318.679 160.391 319.084 159.843 319.5 159.306C319.698 159.361 319.906 159.415 320.103 159.481C320.651 159.602 321.199 159.908 321.703 160.15C325.791 162.089 329.451 164.873 333.242 167.305C333.593 167.536 334.031 166.999 333.703 166.714C330.941 164.38 328.201 162.012 325.626 159.481C325.122 158.988 324.169 158.276 323.873 157.607C323.106 155.832 326.207 156.687 327.04 156.983C330.547 158.243 333.856 160.489 336.99 162.451C338.656 163.492 340.3 164.555 341.921 165.651C342.787 166.232 344.047 167.601 345.198 167.031C347.905 165.695 343.39 162.966 342.404 162.352C341.165 161.585 339.817 160.873 338.382 160.566C337.757 160.434 337.056 160.511 336.453 160.336C334.207 159.689 335.587 157.87 337.023 157.717C339.774 157.432 342.404 158.232 344.836 159.404C351.39 162.593 355.28 168.456 359.269 174.308C359.543 174.702 360.189 174.33 359.915 173.924C356.211 168.489 352.518 162.736 346.612 159.47C344.036 158.046 341.669 157.158 338.733 156.983C337.209 156.895 333.801 157.015 334.535 159.558C334.809 160.522 335.85 160.993 336.749 161.125C339.094 161.454 340.968 162.21 342.93 163.58C343.434 163.93 343.916 164.303 344.387 164.686C344.705 164.949 346.25 166.078 344.179 166.253C343.609 166.308 341.845 164.664 341.33 164.325C339.379 163.032 337.396 161.771 335.39 160.555C332.42 158.769 328.936 156.226 325.418 155.755C323.84 155.547 322.163 156.489 323.325 158.089C324.804 160.117 326.985 161.804 328.848 163.459C330.273 164.73 331.719 165.979 333.177 167.218C333.33 167.021 333.483 166.823 333.637 166.626C331.018 164.938 328.464 163.152 325.802 161.53C324.541 160.763 323.259 160.007 321.922 159.382C321.067 158.988 319.917 158.352 318.942 158.44C318.153 158.506 317.484 159.108 317.331 159.887C317.111 161.015 318.142 161.936 318.777 162.725C321.352 165.903 324.289 168.763 327.489 171.305C327.862 171.601 328.388 171.108 328.026 170.768C326.207 169.125 324.355 167.656 322.262 166.374C320.3 165.169 318.591 163.141 316.169 162.955C314.449 162.834 313.155 164.533 314.032 166.122C314.712 167.349 316.213 168.39 317.144 169.453C318.437 170.944 319.621 172.522 320.717 174.155C329.396 187.162 332.508 203.392 333.549 218.723C334.196 228.235 333.494 237.736 334.075 247.237C334.053 247.785 334.809 247.785 334.777 247.302Z" fill="#4F3422"/>
<path d="M391.443 250.699C386.753 260.748 378.315 268.923 368.014 273.099C358.414 276.989 345.209 277.098 339.237 267.148C335.719 261.296 335.215 253.943 334.777 247.291C334.744 246.809 333.988 246.809 334.021 247.291C334.426 253.461 334.93 260.036 337.615 265.702C339.927 270.6 344.08 274.085 349.308 275.509C360.102 278.457 371.827 273.559 380.068 266.688C385.164 262.436 389.284 257.088 392.09 251.072C392.298 250.645 391.651 250.261 391.443 250.699Z" fill="#4F3422"/>
<path d="M314.373 165.87C315.579 166.012 316.718 165.223 317.08 164.072C317.223 163.612 316.499 163.415 316.357 163.875C316.094 164.73 315.25 165.223 314.373 165.125C313.891 165.059 313.891 165.815 314.373 165.87Z" fill="#4F3422"/>
<path d="M317.823 161.091C319.204 161.727 320.771 161.321 321.68 160.105C321.976 159.721 321.319 159.338 321.034 159.721C320.387 160.587 319.182 160.883 318.195 160.434C317.768 160.247 317.384 160.894 317.823 161.091Z" fill="#4F3422"/>
<path d="M324.005 158.163C325.167 158.371 326.273 157.922 326.975 156.968C327.26 156.585 326.613 156.201 326.328 156.585C325.846 157.242 325.002 157.571 324.202 157.428C323.731 157.352 323.523 158.075 324.005 158.163Z" fill="#4F3422"/>
<path d="M335.293 158.867C336.521 159.283 337.814 159.009 338.789 158.177C339.162 157.859 338.625 157.333 338.252 157.64C337.474 158.297 336.444 158.462 335.49 158.133C335.03 157.99 334.833 158.714 335.293 158.867Z" fill="#4F3422"/>
<path d="M297.213 146.011C303.788 146.449 309.815 150.011 313.377 155.545C313.64 155.95 314.287 155.578 314.024 155.161C310.309 149.386 304.062 145.715 297.213 145.255C296.731 145.222 296.731 145.978 297.213 146.011Z" fill="#4F3422"/>
<path d="M305.583 141.738C308.071 142.461 310.427 143.48 312.662 144.795C313.079 145.047 313.462 144.39 313.046 144.149C310.756 142.801 308.345 141.749 305.78 141.015C305.32 140.872 305.112 141.595 305.583 141.738Z" fill="#4F3422"/>
<path d="M317.473 148.793C317.1 150.415 318.339 152.048 319.993 152.136C320.475 152.158 320.475 151.412 319.993 151.379C318.832 151.314 317.933 150.119 318.196 148.991C318.306 148.519 317.582 148.322 317.473 148.793Z" fill="#4F3422"/>
<path d="M321.767 142.132C321.175 143.655 322.162 145.464 323.751 145.803C324.222 145.902 324.419 145.179 323.948 145.08C322.732 144.817 322.041 143.48 322.491 142.329C322.666 141.88 321.943 141.694 321.767 142.132Z" fill="#4F3422"/>
<path d="M311.38 244.735C310.46 248.307 309.901 251.923 309.704 255.605C309.682 256.088 310.427 256.088 310.46 255.605C310.646 251.989 311.205 248.439 312.104 244.932C312.224 244.472 311.501 244.274 311.38 244.735Z" fill="#4F3422"/>
<path d="M328.662 178.919C329.505 178.393 330.349 177.867 331.204 177.352C331.62 177.1 331.237 176.443 330.82 176.706C329.977 177.232 329.133 177.747 328.278 178.273C327.873 178.525 328.256 179.171 328.662 178.919Z" fill="#FFBD1A"/>
<path d="M334.382 175.029C335.05 174.503 335.719 173.966 336.387 173.44C336.771 173.144 336.234 172.607 335.85 172.903C335.182 173.429 334.513 173.966 333.845 174.492C333.472 174.798 334.009 175.324 334.382 175.029Z" fill="#FFBD1A"/>
<path d="M339.389 171.962C340.157 171.535 340.924 171.107 341.691 170.68C342.118 170.439 341.735 169.792 341.307 170.033C340.54 170.461 339.773 170.888 339.006 171.316C338.589 171.546 338.962 172.192 339.389 171.962Z" fill="#FFBD1A"/>
<path d="M348.924 166.897C349.527 166.897 350.119 166.897 350.721 166.897C351.203 166.897 351.203 166.141 350.721 166.141C350.119 166.141 349.527 166.141 348.924 166.141C348.442 166.141 348.442 166.897 348.924 166.897Z" fill="#FFBD1A"/>
<path d="M292.368 149.64C292.861 149.191 293.365 148.753 293.858 148.303C294.22 147.975 293.683 147.448 293.321 147.766C292.828 148.216 292.324 148.654 291.831 149.103C291.469 149.432 292.006 149.958 292.368 149.64Z" fill="#FFBD1A"/>
<path d="M300.036 143.491C300.584 142.855 301.241 142.362 302.009 142.012C302.447 141.803 302.063 141.157 301.625 141.365C300.814 141.749 300.091 142.286 299.499 142.965C299.192 143.316 299.718 143.853 300.036 143.491Z" fill="#FFBD1A"/>
<path d="M309.212 138.737C310.122 138.178 311.032 137.619 311.941 137.071C312.357 136.819 311.974 136.172 311.558 136.424C310.648 136.983 309.738 137.542 308.829 138.09C308.423 138.342 308.807 138.989 309.212 138.737Z" fill="#FFBD1A"/>
<path d="M310.82 173.057C311.522 174.777 312.727 176.301 314.239 177.385C315.346 178.174 317.242 178.525 317.757 177.276C318.272 176.027 316.727 174.953 315.467 174.47C313.976 173.901 312.475 173.331 310.985 172.75L310.82 173.057Z" fill="white"/>
<path d="M302.669 205.844C301.157 207.411 299.885 209.208 298.888 211.148C298.636 211.652 298.384 212.222 298.549 212.759C298.823 213.701 300.203 213.887 300.992 213.306C301.781 212.726 302.077 211.696 302.242 210.731C302.483 209.186 302.899 207.389 302.669 205.844Z" fill="white"/>
<path d="M297.912 190.535C296.323 192.124 294.965 193.943 293.902 195.927C293.628 196.442 293.365 197.023 293.518 197.581C293.781 198.557 295.195 198.787 296.027 198.206C296.849 197.625 297.189 196.573 297.364 195.576C297.649 193.987 298.121 192.135 297.912 190.535Z" fill="white"/>
<path d="M279.787 222.219C278.198 223.808 276.84 225.627 275.777 227.61C275.503 228.125 275.24 228.706 275.393 229.265C275.656 230.24 277.07 230.471 277.902 229.89C278.724 229.309 279.064 228.257 279.239 227.26C279.524 225.671 279.996 223.819 279.787 222.219Z" fill="white"/>
</svg>
