<svg width="200" height="155" viewBox="0 0 200 155" fill="none" xmlns="http://www.w3.org/2000/svg">
<path d="M210.73 154.407C213.047 157.548 213.545 158.677 216.552 160.248C220.727 162.431 224.691 159.75 227.506 155.939C241.888 136.424 253.475 95.0967 255.543 95.2308C310.793 99.2525 316.289 115.224 271.745 204.333C249.108 249.337 197.286 229.784 188.419 219.883C187.462 218.811 173.443 219.769 190.698 211.036C191.656 210.557 184.264 207.531 183.593 206.669C179.323 201.077 186.083 194.317 182.368 188.361C193.916 178.805 204.161 167.563 210.73 154.407Z" fill="#CFD9B5"/>
<path d="M163.063 164.94C163.235 164.422 163.714 164.097 164.174 163.81C173.596 157.701 184.148 153.372 195.141 151.113L207.34 150.098C209.255 152.338 211.131 154.598 212.97 156.915C205.903 172.562 194.489 186.139 181.429 197.821C174.726 187.94 168.693 177.579 163.408 166.874C163.14 166.242 162.833 165.552 163.063 164.94Z" fill="#3F3C36"/>
<path d="M157.855 100.557C178.94 114.652 197.535 132.999 215.307 150.56C205.981 162.644 194.433 174.25 180.931 181.393C202.208 213.126 230.666 286.512 228.732 314.702C228.33 320.734 229.038 327.092 226.242 332.454C223.427 337.855 218.39 341.379 212.76 343.964C208.834 323.741 203.357 303.786 196.903 284.233C175.186 216.362 158.008 147.477 126.601 84.1641C137.67 88.3581 148.03 93.9884 157.855 100.557Z" fill="#9BB168"/>
<path d="M119.399 81.6538C121.831 82.4199 124.244 83.2434 126.6 84.1435C158.007 147.475 175.185 216.342 196.902 284.212C203.356 303.765 208.833 323.72 212.759 343.943C209.982 345.227 207.052 346.261 204.179 347.18C180.701 354.649 156.264 358 131.598 358.9C130.276 265.674 108.617 172.295 88.1447 76.6172C98.5627 76.7321 109.153 78.4557 119.399 81.6538Z" fill="white"/>
<path d="M13.7072 120.587C22.8613 101.072 38.0096 88.4518 55.7241 81.9405C65.9123 78.2061 76.9432 76.4826 88.1847 76.6166C108.657 172.313 130.297 265.673 131.638 358.9C112.621 359.589 93.4704 358.804 74.5302 357.329C72.0789 357.138 69.3403 356.793 67.77 354.897C65.7208 352.427 66.7167 348.75 67.6168 345.666C73.113 326.822 71.0639 306.695 68.4403 287.237C64.1696 255.524 58.5584 223.982 51.6067 192.728C51.0705 190.334 50.5342 187.902 50.1895 185.451C47.0871 186.983 44.0038 188.534 40.9205 190.066C29.9663 195.562 3.95946 181.908 0.569763 193.686C-1.49852 167.526 2.08267 145.368 13.7072 120.587Z" fill="#9BB168"/>
<path d="M1.06809 200.199C6.21967 209.239 28.5495 206.213 50.956 193.439C73.3624 180.666 87.3425 162.989 82.1909 153.95C77.0394 144.911 54.7095 147.937 32.3031 160.71C9.89661 173.484 -4.08347 191.179 1.06809 200.199Z" fill="#3F3C36"/>
<path d="M66.2972 151.095C71.0849 156.305 78.9367 166.32 83.7244 171.51C92.5338 160.939 105.135 153.604 118.675 151.172C140.756 147.208 154.755 171.932 155.329 173.234C155.329 173.234 151.174 187.425 146.137 180.147C145.045 178.577 142.652 180.013 143.513 181.718C148.435 191.465 140.239 197.134 136.83 191.389C137.806 200.792 133.842 212.876 128.729 220.804C119.096 235.742 107.357 247.826 89.3548 251.867C47.6635 261.251 19.8373 225.401 7.58081 192.117C11.8323 182.254 44.3504 152.436 66.2972 151.095Z" fill="#CFD9B5"/>
<path d="M81.0397 155.366C76.1753 146.748 72.0962 137.69 67.2319 129.072C66.6765 128.095 68.1895 127.214 68.7448 128.191C73.6091 136.809 77.6883 145.867 82.5526 154.485C83.1079 155.462 81.595 156.343 81.0397 155.366Z" fill="#3F3C36"/>
<path d="M95.0796 160.839C95.0796 160.839 107.317 147.74 114.096 143.067C125.721 135.081 126.793 130.293 132.462 123.265C133.956 121.426 136.962 122.575 137.039 125.027C137.192 130.312 134.664 137.015 132.041 140.749C129.589 144.235 132.788 149.176 136.886 148.218C152.092 144.656 170.476 140.022 182.388 139.754C185.625 139.677 190.431 141.745 189.397 144.963C189.033 146.073 188.018 146.705 187.042 147.222C177.888 152.144 163.735 155.802 152.762 157.813C157.76 158.828 169.653 155.649 171.817 162.122C173.655 167.637 169.193 172.463 164.003 172.463C167.316 171.429 183.805 184.375 134.722 197.838L95.0796 160.839Z" fill="#CFD9B5"/>
<path d="M94.4484 160.209C100.672 153.564 107.145 146.937 114.576 141.652C120.11 137.707 124.324 133.149 128.173 127.614C129.897 125.144 133.535 118.594 137.078 122.769C138.763 124.742 137.844 128.265 137.327 130.544C136.542 134.125 135.067 137.419 133.229 140.56C132.271 142.188 131.601 143.567 132.616 145.405C133.957 147.799 136.274 147.435 138.553 146.899C142.785 145.903 147.017 144.888 151.25 143.931C158.623 142.245 166.015 140.637 173.503 139.622C178.195 138.99 186.028 137.209 189.513 141.69C193.879 147.282 181.891 150.653 178.52 151.897C170.266 154.942 161.629 157.03 152.992 158.639C152.992 158.083 152.992 157.509 152.992 156.953C158.584 157.911 166.877 154.904 171.339 159.634C176.663 165.265 170.286 173.04 164.004 173.327C163.008 173.365 162.836 171.853 163.774 171.604C166.494 170.876 169.386 173.959 169.998 176.315C171.626 182.386 164.1 187.077 159.772 189.433C152.035 193.665 143.417 196.327 134.952 198.664C133.861 198.97 133.401 197.266 134.493 196.978C142.9 194.642 151.499 192.038 159.159 187.786C162.415 185.967 166.475 183.554 168.007 179.934C168.983 177.636 167.279 172.485 164.253 173.308C164.176 172.733 164.1 172.159 164.023 171.584C171.722 171.221 174.422 160.496 166.015 159.041C161.553 158.275 156.995 159.424 152.552 158.658C151.709 158.504 151.728 157.126 152.552 156.972C159.35 155.708 166.092 154.119 172.699 152.051C176.012 151.016 179.306 149.848 182.485 148.469C183.825 147.876 185.434 147.32 186.64 146.459C189.973 144.065 187.828 141.747 184.974 140.962C182.408 140.254 179.555 140.713 176.95 140.981C173.273 141.364 169.615 141.958 165.958 142.648C158.872 143.969 151.824 145.597 144.815 147.244C140.583 148.24 133.956 151.361 131.122 146.305C130.222 144.716 130.126 142.82 130.854 141.135C132.175 138.109 134.052 135.6 135.048 132.344C135.603 130.525 136.063 128.629 136.159 126.733C136.178 126.235 136.35 125.048 136.121 124.569C134.588 121.275 132.597 124.512 131.946 125.374C130.567 127.212 129.303 129.146 127.962 131.004C124.936 135.236 121.355 138.817 117.2 141.92C109.405 147.78 102.396 154.31 95.7315 161.454C94.9271 162.277 93.6823 161.032 94.4484 160.209Z" fill="#3F3C36"/>
<path d="M133.228 124.531C134.013 128.591 131.006 132.842 126.698 132.747C125.568 132.727 125.568 130.966 126.698 131.004C129.8 131.08 132.117 127.978 131.543 124.991C131.332 123.899 133.017 123.42 133.228 124.531Z" fill="#3F3C36"/>
<path d="M185.891 141.612C184.608 141.573 183.325 141.612 182.08 141.995C181.467 142.186 180.874 142.32 180.529 142.914C180.012 143.239 179.993 143.584 180.491 143.967C180.644 144.523 181.008 144.772 181.601 144.676C183.823 144.925 186.159 144.81 188.4 144.867C189.53 144.906 189.53 146.648 188.4 146.61C186.006 146.553 183.478 146.706 181.103 146.361C179.878 146.189 178.69 145.538 178.403 144.235C177.58 140.29 183.325 139.754 185.872 139.85C187.021 139.888 187.021 141.65 185.891 141.612Z" fill="#3F3C36"/>
<path d="M135.565 152.55C135.948 154.025 136.312 155.499 136.695 156.974C136.983 158.065 135.278 158.525 135.01 157.433C134.627 155.959 134.263 154.484 133.88 153.01C133.593 151.918 135.297 151.458 135.565 152.55Z" fill="white"/>
<path d="M181.467 -1.44122L184.646 0.282349C186.58 1.71866 186.312 2.19743 186.752 4.55298L187.863 11.6005C187.901 11.8303 188.246 11.8303 188.284 11.6005L189.376 4.59128C189.816 2.23573 189.759 1.71866 191.674 0.2632L194.681 -1.46037C194.796 -1.53698 194.796 -1.70933 194.681 -1.80509L191.291 -3.43291C189.395 -4.86922 189.51 -5.82676 189.069 -8.18231L188.284 -14.8276C188.246 -15.0575 187.901 -15.0575 187.863 -14.8276L186.944 -7.93335C186.522 -5.59695 186.273 -4.62026 184.397 -3.18395L181.447 -1.80509C181.352 -1.69018 181.352 -1.51783 181.467 -1.44122Z" fill="white"/>
<path d="M119.554 35.8821C122.178 33.6031 122.427 29.7155 121.929 26.2875C121.45 22.8595 120.416 19.3549 121.182 16.0035C121.948 12.6713 125.395 9.60714 128.9 10.6796C129.723 10.9285 130.489 11.3882 131.351 11.5222C134.645 12.0393 136.12 8.03677 138.246 5.70037C140.697 3.01926 145.312 2.40643 148.606 4.32151C151.919 6.23659 153.528 10.4689 152.245 13.8203C151.44 15.9078 149.947 18.7229 151.996 19.9103C152.609 20.2741 153.336 20.2933 154.045 20.3316C156.209 20.4465 158.45 20.7912 160.307 21.902C162.184 23.0127 163.601 25.0044 163.41 27.0535C163.142 29.8496 160.192 31.4965 157.626 32.8562C155.06 34.2159 152.264 36.2651 152.57 39.0802C152.781 40.8804 154.256 42.4125 154.581 44.1935C155.156 47.3151 152.149 49.843 149.2 51.1644C145.81 52.6773 142.076 53.5391 138.284 53.654C136.158 53.7306 133.956 53.5583 131.945 54.1519C129.934 54.7456 128.076 56.3543 128.096 58.3843L119.554 35.8821Z" fill="#3F3C36"/>
<path d="M107.739 62.6945L92.361 61.6604C96.2295 43.2181 113.695 33.2406 124.994 28.6061C130.701 26.2697 134.857 25.293 134.857 25.293L133.152 44.7119L128.441 98.2959C127.484 109.097 117.544 116.642 106.839 114.88C106.667 114.861 106.494 114.823 106.322 114.804C93.4143 112.64 86.6924 98.2001 93.376 86.9394C100.462 74.9127 107.739 62.6945 107.739 62.6945Z" fill="#CFD9B5"/>
<path d="M141.654 59.0185C137.881 61.2783 133.017 60.0526 130.757 56.2799C128.497 52.5072 129.723 47.6429 133.495 45.3831C137.268 43.1233 142.132 44.349 144.392 48.1217C146.633 51.8944 145.426 56.7779 141.654 59.0185Z" fill="#CFD9B5"/>
<path d="M133.667 51.9718C136.521 51.3782 139.374 50.7845 142.228 50.2291C143.339 50.0185 143.798 51.7037 142.687 51.9144C139.834 52.4698 136.981 53.0634 134.127 53.6571C133.035 53.9061 132.557 52.2017 133.667 51.9718Z" fill="#3F3C36"/>
<path d="M107.72 62.6949L93.1651 87.5335L119.115 62.6758L107.72 62.6949Z" fill="#3F3C36"/>
<path d="M117.408 33.6999C112.717 35.481 107.929 37.6833 103.658 40.3261C103.658 39.8282 103.658 39.3111 103.658 38.8132C105.516 39.6558 107.354 40.4793 109.212 41.322C110.246 41.7816 109.346 43.2945 108.331 42.8349C106.473 41.9922 104.635 41.1688 102.777 40.3261C102.145 40.0389 102.26 39.1196 102.777 38.8132C107.182 36.0938 112.104 33.834 116.949 32.0147C118.002 31.6125 118.462 33.2978 117.408 33.6999Z" fill="#3F3C36"/>
<path d="M106.51 44.1758L105.361 46.8186C109.823 49.6529 114.86 51.4914 120.069 52.3532C120.988 51.7978 121.869 51.185 122.693 50.4956C116.909 49.7104 111.298 47.5272 106.51 44.1758Z" fill="white"/>
<path d="M106.091 55.2071C109.04 55.5901 112.066 55.3603 114.919 54.5368C114.077 54.0772 113.196 53.6942 112.238 53.4452C110.017 52.9664 107.623 53.5984 106.091 55.2071Z" fill="#ED7E1C"/>
<path d="M105.383 46.7969L102.147 54.2848C103.43 54.7253 104.77 55.0126 106.111 55.1849C107.624 53.5763 110.037 52.9634 112.258 53.4231C113.216 53.6912 114.097 54.055 114.939 54.5147C116.74 53.9976 118.482 53.2698 120.091 52.3123C114.863 51.4888 109.826 49.6503 105.383 46.7969Z" fill="#3F3C36"/>
<path d="M119.919 38.4089C123.73 37.5471 127.483 38.9643 129.858 42.0475C130.548 42.9476 129.015 43.8094 128.345 42.9285C126.468 40.4963 123.366 39.4239 120.398 40.0942C119.287 40.3623 118.827 38.6578 119.919 38.4089Z" fill="#3F3C36"/>
<path d="M124 40.2871C123.866 41.034 124.421 41.8384 125.168 41.9724C125.915 42.1065 126.719 41.5702 126.872 40.8425C126.279 41.3979 125.11 40.9766 125.034 40.1722C125.589 40.1148 126.164 40.3637 126.508 40.8042L124 40.2871Z" fill="#3F3C36"/>
<path d="M124.86 40.2879C124.764 41.0923 125.779 41.4561 126.009 40.5944C126.487 40.8816 126.985 41.1689 127.464 41.4561C126.353 42.3562 124.438 41.9349 124.17 40.4029C124.074 39.8283 124.4 39.3113 125.013 39.2921C125.817 39.2538 126.583 39.5794 127.1 40.173C127.847 41.0157 126.622 42.2605 125.855 41.4178C125.607 41.1306 125.377 41.0348 124.994 41.0348C125.281 40.671 125.549 40.2879 125.836 39.9241C125.855 40.039 126.047 40.3454 126.219 40.2113C126.87 39.6751 127.924 40.1539 127.675 41.0731C127.368 42.2222 126.219 43.0457 125.013 42.835C123.845 42.6435 122.964 41.4753 123.098 40.2879C123.155 39.8092 123.462 39.407 123.979 39.407C124.419 39.407 124.917 39.8092 124.86 40.2879Z" fill="#3F3C36"/>
<path d="M123.287 41.3025C124.953 41.2642 126.485 41.877 127.692 43.0069C128.515 43.7729 127.271 45.0177 126.447 44.2517C125.566 43.4282 124.475 43.0452 123.268 43.0644C122.157 43.0835 122.157 41.3216 123.287 41.3025Z" fill="#3F3C36"/>
<path d="M157.951 31.2857C155.002 32.1858 153.585 35.7479 155.883 38.1609C156.745 39.061 158.085 39.3674 158.871 40.3632C160.039 41.857 159.828 43.9253 159.1 45.5531C156.841 50.6664 150.674 51.4132 145.791 51.758C144.661 51.8346 144.661 50.0918 145.791 50.0152C149.487 49.7663 153.662 49.4599 156.343 46.5872C158.047 44.7488 158.43 42.4124 156.381 40.6505C155.538 39.9228 154.753 39.6738 154.045 38.6971C151.498 35.1734 153.585 30.7878 157.473 29.6005C158.564 29.2558 159.043 30.9602 157.951 31.2857Z" fill="#3F3C36"/>
<path d="M153.278 25.5398C149.716 24.678 150.003 20.7329 151.554 18.2242C153.163 15.6005 155.805 13.0726 155.154 9.66374C154.35 5.41226 149.218 4.51217 146.364 7.23159C145.541 8.01677 144.315 6.77197 145.119 5.98678C148.26 2.99926 153.335 3.09501 155.844 6.86772C157.108 8.76365 157.261 11.0426 156.571 13.1875C155.901 15.3132 149.409 22.8203 153.756 23.8545C154.829 24.1035 154.369 25.7887 153.278 25.5398Z" fill="#3F3C36"/>
<path d="M121.067 28.1274C120.473 24.9101 118.596 21.9992 118.367 18.7052C118.175 16.0624 119.037 13.3622 120.626 11.2556C121.948 9.51284 124.112 7.55946 126.429 7.55946C127.77 7.55946 128.574 8.22974 129.666 8.90002C132.04 10.3363 134.779 10.3555 136.598 7.90418C137.268 7.00409 138.781 7.88503 138.111 8.78511C136.981 10.298 135.545 11.313 133.63 11.6194C130.757 12.0791 129.014 9.89586 126.391 9.85756C122.522 9.80011 120.109 14.3005 120.071 17.8818C120.033 21.2906 122.12 24.3547 122.733 27.6678C122.963 28.7594 121.277 29.2382 121.067 28.1274Z" fill="#3F3C36"/>
<path d="M95.5776 115.089C103.046 121.141 114.154 122.079 122.37 116.928C130.336 111.929 134.377 101.971 132.596 92.8359C132.385 91.7251 134.071 91.2655 134.281 92.3762C136.196 102.316 131.907 113.021 123.251 118.46C114.326 124.052 102.414 122.883 94.3328 116.353C93.4519 115.625 94.6967 114.381 95.5776 115.089Z" fill="#3F3C36"/>
<path d="M101.093 47.5073C104.943 43.3898 110.496 41.5322 115.801 44.0601C121.029 46.5497 123.768 51.9694 124.208 57.5423C124.419 60.166 120.321 60.1468 120.11 57.5423C119.44 48.9053 110.592 43.3324 103.966 50.399C102.185 52.3333 99.293 49.4415 101.093 47.5073Z" fill="#3F3C36"/>
<path d="M129.474 28.6245C132.423 28.95 134.702 31.2673 134.97 34.2356C135.066 35.3655 133.323 35.3464 133.208 34.2356C133.036 32.3014 131.408 30.597 129.474 30.3863C128.363 30.2523 128.363 28.4904 129.474 28.6245Z" fill="#3F3C36"/>
<path d="M135.374 42.9867C129.839 39.9225 124.304 36.8584 118.77 33.7943C119.172 33.6985 119.574 33.5836 119.976 33.4879C118.253 36.9733 118.348 41.5312 121.393 44.2506C125.587 47.985 132.08 46.204 135.048 41.7993C135.68 40.8609 137.193 41.7419 136.561 42.6803C133.133 47.7361 126.047 49.8618 120.934 46.1274C116.625 42.9675 116.204 37.1648 118.444 32.6069C118.655 32.1665 119.249 32.0707 119.651 32.3005C125.185 35.3647 130.72 38.4288 136.254 41.4929C137.25 42.0291 136.35 43.5421 135.374 42.9867Z" fill="#3F3C36"/>
<path d="M112.678 30.0804C107.144 27.0163 101.609 23.9522 96.0745 20.888C96.4766 20.7923 96.8788 20.6774 97.281 20.5816C95.5574 24.0671 95.6532 28.625 98.6982 31.3444C102.892 35.0788 109.384 33.2978 112.353 28.8931C112.985 27.9547 114.498 28.8356 113.866 29.774C110.438 34.8298 103.352 36.9556 98.2385 33.2212C93.9296 30.0613 93.5083 24.2586 95.7489 19.7007C95.9596 19.2602 96.5532 19.1645 96.9554 19.3943C102.49 22.4584 108.025 25.5225 113.559 28.5867C114.555 29.1037 113.674 30.6166 112.678 30.0804Z" fill="#3F3C36"/>
<path d="M117.679 36.2676C115.381 35.0419 113.063 33.7971 110.765 32.5715C109.77 32.0352 110.65 30.5223 111.646 31.0586C113.944 32.2842 116.262 33.529 118.56 34.7547C119.556 35.2909 118.675 36.8038 117.679 36.2676Z" fill="#3F3C36"/>
<path d="M104.403 45.0742C96.2451 50.1875 89.3125 57.867 88.4316 67.4615C88.2783 69.2425 88.4124 71.2151 89.6189 72.5365C91.3042 74.375 96.5324 74.4899 99.0028 74.0302C108.119 72.3067 114.075 70.0469 122.252 65.6996C125.201 64.1293 128.744 61.1609 130.736 58.4606C132.727 55.7604 133.57 51.9877 132.019 49.0193C128.457 53.4431 123.861 57.1392 118.518 59.0735C114.706 60.4523 101.339 63.3058 101.55 55.971C101.626 53.4623 103.427 51.0684 105.38 49.4789L104.403 45.0742Z" fill="#3F3C36"/>
</svg>
