<svg width="375" height="597" viewBox="0 0 375 597" fill="none" xmlns="http://www.w3.org/2000/svg">
<path d="M309.648 393.563C317.79 402.527 330.381 394.888 334.294 385.861C337.387 378.758 337.955 370.583 339.028 363.007C340.258 354.484 341.363 345.962 342.373 337.439C346.065 306.031 350.357 273.203 343.004 241.985C341.395 235.23 334.61 206 322.397 213.481C320.819 214.459 322.271 216.953 323.849 215.975C335.02 209.156 342.467 253.916 343.099 260.009C344.74 276.012 344.014 292.174 342.625 308.178C341.079 325.633 339.028 343.058 336.566 360.387C335.493 367.994 334.957 376.138 332.243 383.367C329.403 390.974 319.147 399.718 311.731 391.542C310.437 390.154 308.418 392.174 309.648 393.563Z" fill="#FFCE5C"/>
<path d="M-5.76545 314.176C-12.9289 299.719 -11.5404 283.368 -7.43796 268.217C-3.46179 253.539 2.59714 239.113 9.98145 225.824C24.403 199.909 47.7551 177.087 78.3337 173.204C80.164 172.983 80.164 170.079 78.3337 170.332C46.6821 174.372 22.478 197.478 7.48845 224.404C-0.527003 238.798 -7.15395 254.675 -11.0354 270.679C-14.696 285.704 -15.2641 301.519 -8.22689 315.66C-7.43796 317.301 -4.94497 315.818 -5.76545 314.176Z" fill="#FFCE5C"/>
<path d="M567.972 339.016C555.917 338.195 543.263 337.154 534.048 338.227C514.136 340.531 495.517 349.149 476.173 354.357C456.292 359.692 435.654 361.459 415.142 363.164C400.184 364.426 385.226 365.689 370.236 365.689C356.509 365.721 342.782 364.742 329.118 363.511C307.438 361.585 285.348 359.534 263.195 356.788C213.115 350.601 162.876 340.942 117.15 321.623C106.042 316.92 95.0602 311.901 84.2361 306.567C33.2402 281.44 -14.4107 249.37 -57.0126 211.46C-73.0435 197.192 -88.3486 182.135 -102.865 166.289L-102.928 166.226C-105.831 163.038 -102.36 158.114 -98.4468 159.85L-77.1459 169.288C-73.7693 170.772 -69.73 170.298 -67.0161 167.773C-63.7342 164.711 -64.8702 160.891 -66.164 157.546C-70.3927 146.561 -76.2623 136.239 -80.2069 125.159C-82.4159 118.909 -84.0884 109.092 -84.3724 99.7174C-84.5302 94.4459 -77.3983 92.8992 -75.4418 97.7603C-71.7496 106.914 -61.7776 123.865 -52.6261 135.671C-51.1114 137.628 -48.1451 135.607 -49.3442 133.429C-57.1388 119.477 -65.8485 101.359 -66.4796 91.2578C-66.669 88.1328 -64.46 85.2603 -61.3674 84.9762C-57.4228 84.5974 -55.7187 88.9535 -54.5827 92.4573C-50.3856 105.241 -43.664 117.457 -32.9977 125.443C-37.9206 117.836 -43.2537 107.167 -45.9361 98.4232C-47.4508 93.4989 -41.0132 90.153 -38.0153 94.2881C-34.8596 98.6441 -31.8617 105.147 -29.7158 108.903C-17.4718 130.241 -1.28307 149.244 17.7773 164.585C29.5165 174.054 42.297 182.104 55.0145 190.153C78.8083 205.146 106.358 219.067 134.38 229.641C150.348 235.607 166.442 240.531 182.063 243.972C203.774 248.739 225.927 251.769 248.269 253.726C282.382 256.725 316.874 257.261 350.766 257.735C398.133 258.398 446.856 258.492 491.068 241.194C500.282 237.596 518.554 231.188 534.995 227.242C539.886 226.074 542.221 233.145 537.614 235.197C524.77 240.973 510.002 247.192 497.821 251.548C496.054 252.179 494.665 253.663 494.35 255.525C493.624 259.85 500.377 258.966 504.7 257.861L557.684 244.351C563.27 242.93 566.962 250.033 562.67 253.915C560.209 256.125 557.148 257.987 554.276 259.281C543.326 264.206 526.096 269.919 511.169 275.348C506.341 277.116 508.235 284.471 513.284 283.555C528.021 280.935 549.511 274.622 567.53 269.698C573.147 268.151 576.461 275.853 571.569 279.041C559.01 287.154 545.819 293.719 532.029 299.338C515.524 306.093 518.806 319.824 530.419 321.813C537.015 322.949 543.2 323.549 547.271 323.581C553.172 323.644 562.26 325.38 570.212 328.505C575.956 330.809 574.031 339.426 567.972 339.016Z" fill="#F6A460"/>
<path d="M142.838 270.109C149.401 290.311 169.85 296.088 185.408 289.364C201.597 282.736 214.219 267.489 223.371 251.075C207.813 249.15 190.993 247.919 175.815 243.973C164.833 241.132 153.598 237.25 142.364 232.609C138.956 244.762 139.619 258.02 142.838 270.109Z" fill="#F6A460"/>
<path d="M265.151 362.943C264.488 360.923 263.825 358.871 263.162 356.787C257.419 338.763 251.991 319.508 250.666 300.885C249.246 280.935 248.52 265.531 248.236 253.726C244.228 253.379 227.314 251.485 223.338 251.043C212.608 267.457 206.644 280.557 187.615 287.154C169.344 293.877 150.978 290.279 143.278 270.077C139.491 257.987 138.702 244.73 142.741 232.608C139.933 231.63 137.156 230.62 134.347 229.578C118.001 243.183 105.252 261.112 95.7846 279.988C91.4298 288.637 87.5799 297.507 84.2033 306.567C69.8133 344.919 63.5019 386.333 61.861 426.989C59.5889 483.46 62.1134 541.32 72.0854 596.97L421.673 583.523C354.677 520.202 294.183 452.242 265.151 362.943Z" fill="#FFCE5C"/>
<path d="M189.288 200.853C182.63 194.477 183.072 182.482 190.172 176.484C194.053 173.201 199.355 171.686 202.858 168.056C210.968 159.66 205.414 146.276 205.572 134.818C205.698 123.707 212.988 113.953 222.139 107.166C238.77 94.7609 249.72 101.611 263.037 96.9073C294.815 85.7015 289.481 67.9933 302.199 54.6726C314.916 41.3835 334.419 36.3961 353.037 36.3645C366.859 36.3645 379.829 43.6877 393.651 43.2774C409.776 42.8039 411.07 24.6537 441.87 22.886C463.297 21.6865 484.061 33.2395 494.033 51.6423C504.037 70.045 498.862 100.506 481.411 112.785C468.693 121.718 442.911 125.474 427.417 123.58C411.196 121.592 401.729 109.313 388.286 118.403C372.855 128.82 372.476 152.305 357.676 163.511C346.095 172.286 329.811 170.613 315.263 168.908C300.747 167.204 284.085 166.541 273.545 176.484C266.382 183.271 262.942 194.319 253.57 197.665C240.442 202.336 225.042 188.321 212.924 195.139C209.674 196.97 207.37 200.064 204.341 202.242C201.311 204.42 196.736 205.493 193.99 203.031L189.288 200.853Z" fill="#4F3422"/>
<path d="M191.97 181.41C200.458 174.845 202.162 163.955 201.374 153.79C200.269 139.333 195.914 124.119 207.401 112.471C225.357 94.2893 254.768 99.3398 274.554 84.3145C285.41 76.0759 288.849 62.408 297.938 52.6543C307.279 42.6164 320.375 36.2402 334.07 35.2616C356.823 33.6518 388.569 46.6884 405.673 24.6871C410.974 17.8374 413.909 2.11775 401.981 0.129117C398.289 -0.47063 393.808 1.01295 392.293 4.70613C390.747 8.494 394.88 10.9561 398.226 9.88288C399.993 9.3147 399.235 6.53693 397.468 7.10511C396.711 6.50537 395.985 5.87405 395.228 5.27431C396.017 4.16951 397.058 3.47507 398.352 3.12785C399.74 2.68593 401.413 2.74906 402.77 3.25411C406.178 4.51673 407.566 8.33617 407.598 11.6821C407.661 17.3324 404.379 22.6038 400.245 26.2339C392.04 33.3992 380.364 35.1985 369.856 34.7881C356.854 34.2831 343.916 31.0634 330.883 32.6732C321.321 33.8727 312.107 37.5659 304.312 43.2161C296.013 49.2452 290.459 56.9787 285.473 65.8487C282.475 71.1517 279.414 76.4231 274.775 80.432C270.199 84.3777 264.74 87.0923 259.091 89.1125C240.851 95.6781 218.446 96.0569 204.498 111.335C196.545 120.078 195.82 131.032 197.145 142.301C198.533 154.327 201.721 170.299 190.55 178.885C189.066 180.021 190.486 182.515 191.97 181.41Z" fill="#4F3422"/>
<path d="M235.268 191.668C244.766 196.339 256.032 195.708 264.647 189.363C269.318 185.923 272.947 181.03 278.059 178.158C285.222 174.149 293.427 175.475 301.032 177.432C313.055 180.494 324.479 183.839 337.039 182.23C347.673 180.872 357.077 176.201 364.272 168.183C371.846 159.723 377.021 148.896 386.394 142.173C397.754 134.029 412.681 134.818 425.714 137.501C448.529 142.141 476.52 154.01 495.738 134.218C500.914 128.884 509.15 113.827 499.367 109.155C496.18 107.64 491.952 107.798 489.806 110.923C487.786 113.89 488.48 117.962 491.604 119.73C493.214 120.645 494.665 118.151 493.056 117.236C488.701 114.774 493.719 110.449 497.032 111.333C499.02 111.87 500.251 113.164 500.661 115.374C501.071 117.71 500.409 120.519 499.651 122.697C497.916 127.905 494.16 132.324 489.806 135.576C480.875 142.236 469.925 143.341 459.132 142.015C438.273 139.427 417.509 128.537 396.176 134.408C377.4 139.585 371.72 158.208 358.34 170.045C350.229 177.211 339.5 179.925 328.865 179.799C318.01 179.641 308.259 175.822 297.75 173.675C287.242 171.529 278.532 173.076 270.517 180.304C266.067 184.281 262.091 188.574 256.285 190.563C249.815 192.773 242.841 192.173 236.751 189.174C235.047 188.353 233.595 190.847 235.268 191.668Z" fill="#4F3422"/>
<path d="M83.762 320.331C72.6856 308.967 54.2248 310.451 38.6988 313.797C23.1728 317.143 5.97427 321.31 -7.72143 313.292C-8.66814 309.536 -5.29155 305.969 -1.72562 304.454C1.87187 302.938 5.91115 302.56 9.22462 300.508C20.0486 293.753 15.3467 275.571 24.1195 266.291C31.1882 258.841 44.9155 259.536 50.0593 250.634C56.1497 240.091 45.1364 223.993 53.8776 215.533C56.1182 213.355 59.2108 212.345 61.9878 210.988C76.6617 203.886 84.2354 184.883 78.5236 169.605C85.2137 169.384 91.2726 173.93 95.091 179.422C98.9093 184.915 101.024 191.386 103.769 197.478C109.512 210.136 123.492 220.931 134.348 229.612C135.768 230.748 132.076 232.421 132.707 234.125C133.306 235.767 132.991 237.566 132.644 239.271C129.204 257.01 125.701 274.877 118.885 291.606C112.069 308.336 101.56 324.024 86.6021 334.188L83.762 320.331Z" fill="#FFCE5C"/>
<path d="M241.043 260.104C262.375 236.241 292.417 219.48 324.889 213.324C313.781 222.352 301.664 233.747 303.368 247.478C303.873 251.487 305.577 255.433 305.103 259.473C303.683 271.626 283.865 277.497 285.159 289.65C286.011 297.731 296.394 303.223 295.826 311.335C295.258 319.29 284.181 324.782 285.727 332.611C286.706 337.566 292.386 340.344 295.131 344.669C299.171 351.013 296.267 359.094 296.835 366.449C297.593 376.613 307.091 391.922 317.568 394.321C286.358 395.268 254.076 372.604 238.928 346.91C223.75 321.215 225.201 287.566 242.526 263.103L241.043 260.104Z" fill="#FFCE5C"/>
<path d="M270.518 376.8C248.712 362.596 227.38 346.939 221.7 319.951C216.335 294.509 227.001 268.183 247.986 253.032C249.091 252.211 248.018 250.348 246.882 251.169C225.991 266.258 214.852 291.857 219.017 317.425C223.751 346.529 246.188 363.574 269.414 378.663C270.613 379.42 271.686 377.558 270.518 376.8Z" fill="#4F3422"/>
<path d="M80.8593 320.899C92.5353 287.882 110.081 255.937 134.222 230.369C135.169 229.359 133.654 227.812 132.676 228.854C108.282 254.738 90.5788 286.966 78.7765 320.331C78.3032 321.625 80.3859 322.193 80.8593 320.899Z" fill="#4F3422"/>
<path d="M64.5453 300.319C66.8805 300.193 68.9633 300.824 70.8882 302.15C72.0243 302.939 73.1288 301.077 71.9927 300.288C69.8153 298.773 67.2276 298.015 64.5768 298.173C63.1568 298.204 63.1568 300.382 64.5453 300.319Z" fill="#4F3422"/>
<path d="M70.7623 284.186C73.1922 286.553 75.7799 288.7 78.5253 290.657C79.6614 291.478 80.7343 289.584 79.6298 288.795C77.0106 286.932 74.5807 284.88 72.3086 282.639C71.2672 281.692 69.7525 283.207 70.7623 284.186Z" fill="#4F3422"/>
<path d="M102.823 239.681C106.042 241.102 109.292 242.49 112.511 243.911C113.773 244.447 114.878 242.585 113.615 242.049C110.397 240.628 107.146 239.239 103.928 237.819C102.665 237.282 101.561 239.144 102.823 239.681Z" fill="#4F3422"/>
<path d="M112.1 233.334C113.015 236.144 114.877 238.48 117.465 239.9C118.695 240.563 119.768 238.701 118.569 238.038C116.487 236.87 114.94 235.039 114.183 232.766C113.773 231.441 111.69 232.009 112.1 233.334Z" fill="#4F3422"/>
<path d="M116.93 222.574C118.287 226.014 120.465 228.824 123.431 231.002C124.567 231.822 125.64 229.96 124.535 229.139C122.074 227.308 120.149 224.846 119.045 222.005C118.508 220.711 116.394 221.279 116.93 222.574Z" fill="#4F3422"/>
<path d="M238.865 269.07C241.799 268.344 244.734 267.618 247.669 266.892C249.026 266.545 248.458 264.461 247.101 264.808C244.166 265.534 241.231 266.26 238.297 266.986C236.94 267.302 237.508 269.385 238.865 269.07Z" fill="#4F3422"/>
<path d="M234.604 280.714C237.854 280.303 241.01 280.556 244.166 281.534C245.491 281.945 246.059 279.861 244.734 279.451C241.42 278.409 238.043 278.125 234.604 278.536C233.247 278.725 233.215 280.903 234.604 280.714Z" fill="#4F3422"/>
<path d="M227.819 327.623C230.059 329.959 232.3 332.295 234.541 334.662C235.519 335.672 237.034 334.125 236.087 333.147C233.846 330.811 231.606 328.475 229.365 326.108C228.387 325.066 226.872 326.613 227.819 327.623Z" fill="#4F3422"/>
<path d="M228.388 322.128C231.355 322.665 234.321 323.201 237.287 323.769C238.644 324.022 239.244 321.939 237.855 321.686C234.889 321.149 231.923 320.613 228.956 320.045C227.599 319.792 227 321.875 228.388 322.128Z" fill="#4F3422"/>
<path d="M227.22 312.882C229.839 314.302 232.648 315.06 235.583 315.123C236.971 315.155 236.971 313.008 235.583 312.945C232.995 312.882 230.565 312.219 228.293 310.988C227.062 310.357 225.989 312.219 227.22 312.882Z" fill="#4F3422"/>
<path d="M217.471 135.544C219.743 123.77 228.358 114.332 239.94 111.144C241.738 110.639 240.981 107.861 239.182 108.366C226.686 111.806 217.155 122.034 214.694 134.786C214.347 136.617 217.124 137.375 217.471 135.544Z" fill="#251404"/>
<path d="M281.436 103.759C288.094 99.5926 294.974 95.1734 298.918 88.1343C301.127 84.2202 302.611 79.9588 305.104 76.2025C307.881 72.0359 311.32 68.5005 315.202 65.3755C316.653 64.2076 314.602 62.1874 313.151 63.3238C306.713 68.4689 301.979 74.7821 298.54 82.2631C294.469 91.1646 288.094 96.1835 279.953 101.266C278.406 102.244 279.858 104.738 281.436 103.759Z" fill="#251404"/>
<path d="M333.092 56.0934C344.926 46.9393 360.231 51.6111 372.98 55.8724C374.747 56.4722 375.505 53.6628 373.738 53.0946C359.726 48.4545 343.822 44.1616 331.041 54.0732C329.558 55.178 331.641 57.1982 333.092 56.0934Z" fill="#251404"/>
<path d="M193.801 254.896L207.055 167.996C207.055 167.996 164.074 176.961 156.501 209.158L174.393 210.799L155.617 241.007C148.738 252.087 153.944 266.733 166.283 270.963C166.504 271.026 166.693 271.121 166.914 271.184C179.001 275.256 191.876 267.491 193.801 254.896Z" fill="#F6A460"/>
<path d="M214.03 207.486C209.58 210.012 203.931 208.433 201.407 203.983C198.882 199.532 200.46 193.882 204.91 191.356C209.359 188.831 215.008 190.409 217.532 194.86C220.025 199.311 218.479 204.961 214.03 207.486Z" fill="#F6A460"/>
<path d="M205.447 201.079C208.792 200.447 212.137 199.848 215.482 199.279C216.839 199.058 216.271 196.975 214.914 197.196C211.569 197.764 208.224 198.364 204.879 198.995C203.522 199.248 204.09 201.331 205.447 201.079Z" fill="#4F3422"/>
<path d="M174.363 210.801L156.691 239.305L187.649 211.085L174.363 210.801Z" fill="#4F3422"/>
<path d="M168.936 192.555C168.936 192.555 180.517 195.585 190.268 196.343C190.268 196.343 172.092 206.286 162.277 202.656L168.936 192.555Z" fill="white"/>
<path d="M185.942 175.225C180.23 177.214 174.424 179.708 169.217 182.769C168.554 183.148 168.459 184.285 169.217 184.632C171.363 185.673 173.477 186.684 175.623 187.725C176.885 188.325 177.958 186.463 176.727 185.863C174.581 184.821 172.467 183.811 170.321 182.769C170.321 183.401 170.321 184 170.321 184.632C175.37 181.665 180.987 179.266 186.51 177.309C187.835 176.867 187.267 174.783 185.942 175.225Z" fill="#4F3422"/>
<path d="M189.73 187.568C192.223 185.895 196.736 188.105 197.966 190.504C198.598 191.735 200.459 190.661 199.828 189.399C198.061 185.99 192.065 183.338 188.626 185.674C187.49 186.463 188.594 188.357 189.73 187.568Z" fill="#4F3422"/>
</svg>
