<svg width="362" height="410" viewBox="0 0 362 410" fill="none" xmlns="http://www.w3.org/2000/svg">
<path d="M114.196 194.934C107.541 193.432 101.865 192.272 100.612 192.181C86.9585 191.134 73.0775 192.59 60.0399 196.914C-11.5531 220.762 -4.64681 315.402 8.18569 374.134C8.66434 376.296 12.3796 395.661 14.0207 395.73C14.0207 395.73 44.1987 397.049 85.7733 398.87C86.571 329.92 90.1723 260.766 114.196 194.934Z" fill="#FA4D5E"/>
<path d="M228.253 227.382C221.62 233.754 214.349 239.534 206.44 244.244C191.009 253.438 169.72 258.103 152.284 256.146C126.527 253.278 128.1 220.214 139.246 201.851C139.77 201.009 125.57 197.459 114.174 194.91C90.1725 260.765 86.5712 329.919 85.7734 398.869C118.96 400.325 159.395 402.077 197.573 403.761C212.252 343.436 226.68 283.134 233.814 221.261C231.17 224.242 228.982 226.7 228.253 227.382Z" fill="white"/>
<path d="M361.525 278.195C361.57 262.517 358.881 245.746 353.046 231.159C336.019 188.606 279.037 170.971 246.123 207.061C245.576 207.676 238.898 215.435 233.815 221.238C226.681 283.133 212.253 343.436 197.574 403.738C265.315 406.696 325.876 409.336 325.899 409.336C326.264 409.336 334.241 387.126 335.244 384.828C339.643 374.702 343.564 364.371 346.983 353.858C353.365 334.22 358.607 313.444 360.75 292.873C361.228 288.117 361.502 283.201 361.525 278.195Z" fill="#FA4D5E"/>
<path d="M110.708 115.265C111.665 117.86 112.622 120.431 113.602 123.025C114.058 124.277 116.087 123.731 115.608 122.479C114.651 119.885 113.693 117.313 112.713 114.719C112.257 113.468 110.252 113.991 110.708 115.265Z" fill="#4F3422"/>
<path d="M131.383 238.214C133.708 253.551 148.637 257.693 162.267 257.261C179.499 256.692 196.206 251.117 210.543 241.673C217.404 237.145 223.74 231.843 229.575 226.085C231.49 224.197 244.915 206.811 246.1 207.062C227.364 203.216 207.831 202.42 189.254 202.169C171.111 201.942 154.654 201.441 139.246 201.873C132.682 212.751 129.4 225.061 131.383 238.214Z" fill="#F6A460"/>
<path d="M252.867 310.029C249.585 335.492 243.021 360.41 233.334 384.212C232.832 385.464 234.838 385.987 235.339 384.758C245.095 360.797 251.637 335.697 254.942 310.029C255.124 308.709 253.027 308.709 252.867 310.029Z" fill="#4F3422"/>
<path d="M124.475 218.097C119.848 231.136 119.802 245.29 124.361 258.374C124.794 259.626 126.822 259.102 126.366 257.828C121.922 245.062 121.967 231.409 126.48 218.666C126.913 217.369 124.908 216.845 124.475 218.097Z" fill="#4F3422"/>
<path d="M136.534 267.636C149.617 272.778 165.185 270.912 178.496 267.749C192.924 264.313 207.716 258.442 218.885 248.475C219.888 247.588 218.406 246.109 217.403 246.996C206.508 256.736 191.989 262.402 177.926 265.747C164.957 268.819 149.822 270.662 137.081 265.633C135.85 265.133 135.303 267.135 136.534 267.636Z" fill="#4F3422"/>
<path d="M96.9647 136.382C96.5544 132.149 93.4089 128.645 89.762 126.779C86.1152 124.89 81.9896 124.367 77.9552 123.866C68.7696 122.706 59.6068 121.545 50.4212 120.408C44.3583 119.634 37.999 118.746 33.1441 114.878C28.2892 111.009 25.8275 103.113 29.634 98.1298C34.6712 91.5534 46.2729 94.3979 50.9911 87.5712C54.5696 82.4057 51.6065 74.828 46.8883 70.7775C42.1701 66.727 36.1072 64.8611 30.9332 61.4705C23.3431 56.487 17.8727 48.0674 16.2544 38.8514C15.9581 37.213 15.7986 35.4836 16.3 33.8907C17.4625 30.2498 21.8615 28.7251 25.44 29.5216C29.0413 30.318 32.05 32.7529 35.0587 34.9602C40.0504 38.6011 46.2501 41.8324 52.0395 39.8526C57.6694 37.9412 60.8605 31.7744 62.5699 25.8807C64.2794 19.9642 65.1227 13.5926 68.4733 8.51814C72.0974 2.98853 78.5934 -0.356552 84.9983 0.0302939C91.4031 0.394384 97.5117 4.46764 100.566 10.3841C103.256 15.6407 103.529 21.8074 104.714 27.6556C105.877 33.4811 108.521 39.6706 113.763 41.9917C117.615 43.6983 122.014 42.9474 126.208 42.8791C130.402 42.8109 135.189 43.8576 137.263 47.6806C138.471 49.9334 138.448 52.6641 138.288 55.2354C137.514 67.1139 134.459 78.6965 133.32 90.5522C132.157 102.385 133.16 115.106 139.656 124.89L96.9647 136.382Z" fill="#4F3422"/>
<path d="M216.102 202.67L127.231 108.712C114.695 112.603 101.293 108.553 92.2214 99.4961C84.107 122.57 75.8103 162.006 98.3299 192.339L120.394 170.676C120.394 170.676 129.055 197.823 137.602 224.493C145.603 249.456 176.237 258.603 196.659 242.151C196.933 241.924 197.206 241.719 197.457 241.491C214.369 227.792 231.054 218.485 216.102 202.67Z" fill="#F6A460"/>
<path d="M127.233 108.712L100.383 80.3359C100.383 80.3359 96.3254 87.8225 92.2227 99.4962C101.317 108.576 114.697 112.603 127.233 108.712Z" fill="#F6A460"/>
<path d="M160.075 114.97C158.434 123.617 150.115 129.306 141.453 127.668C132.792 126.029 127.094 117.724 128.735 109.076C130.376 100.429 138.695 94.7404 147.357 96.3789C156.018 97.9945 161.716 106.323 160.075 114.97Z" fill="#F6A460"/>
<path d="M141.343 118.84C144.237 113.766 147.155 108.714 150.141 103.685C150.824 102.524 149.024 101.478 148.34 102.638C145.354 107.644 142.437 112.719 139.542 117.793C138.881 118.977 140.682 120.023 141.343 118.84Z" fill="#4F3422"/>
<path d="M120.395 170.676L138.219 225.54L135.529 153.609L120.395 170.676Z" fill="#4F3422"/>
<path d="M87.1848 116.515C83.5151 126.027 80.3697 136.313 78.6602 146.348C78.5006 147.281 79.344 147.895 80.1873 147.531C83.9026 145.87 87.6407 144.209 91.3559 142.548C92.5868 142.002 91.5155 140.204 90.3075 140.75C86.5922 142.411 82.8541 144.073 79.1389 145.734C79.6403 146.121 80.1645 146.507 80.666 146.917C82.3755 136.859 85.5209 126.573 89.1906 117.084C89.692 115.833 87.6635 115.287 87.1848 116.515Z" fill="#4F3422"/>
<path d="M108.953 114.15C110.115 117.449 111.301 120.749 112.463 124.048C112.919 125.3 114.925 124.754 114.469 123.502C113.307 120.203 112.121 116.903 110.959 113.603C110.526 112.352 108.497 112.898 108.953 114.15Z" fill="#4F3422"/>
<path d="M111.21 126.187C113.261 125.027 115.313 123.844 117.387 122.683C118.549 122.023 117.501 120.225 116.338 120.885C114.287 122.046 112.236 123.229 110.161 124.39C108.976 125.05 110.025 126.847 111.21 126.187Z" fill="#4F3422"/>
<path d="M101.727 104.911C106.24 109.758 112.349 112.352 118.982 112.238C120.326 112.216 120.326 110.122 118.982 110.168C112.873 110.281 107.38 107.938 103.209 103.455C102.274 102.453 100.793 103.933 101.727 104.911Z" fill="#4F3422"/>
<path d="M94.1602 166.809C94.1602 166.809 95.0263 155.249 98.3541 150.47C104.007 142.346 106.263 141.846 111.301 138.91C113.398 137.682 116.315 137.204 118.754 137.272C121.17 137.317 123.746 139.161 123.677 141.573C123.632 143.939 121.329 145.555 119.255 146.693C110.093 151.79 99.7217 156.455 94.8667 165.762L94.1602 166.809Z" fill="#4F3422"/>
<path d="M125.339 136.566C126.729 139.592 126.683 142.983 125.27 146.009C124.7 147.215 126.501 148.262 127.071 147.056C128.849 143.301 128.849 139.296 127.139 135.519C126.569 134.313 124.792 135.36 125.339 136.566Z" fill="#4F3422"/>
<path d="M38.3867 287.64C36.1985 316.858 37.908 347.032 43.4923 375.818C43.743 377.138 45.7488 376.569 45.4981 375.272C39.9366 346.691 38.2955 316.676 40.4608 287.64C40.5748 286.297 38.4778 286.297 38.3867 287.64Z" fill="#4F3422"/>
<path d="M154.245 152.105C153.857 152.196 157.344 159.433 159.783 164.735C160.467 166.191 161.105 167.739 162.359 168.763C163.59 169.787 165.55 170.219 167.191 169.309C169.311 168.148 169.926 165.281 169.083 163.37C168.217 161.458 166.348 160.275 164.547 159.182C161.174 157.112 154.245 152.105 154.245 152.105Z" fill="#C2B1FF"/>
<path d="M215.534 160.367C215.146 160.458 218.633 167.694 221.072 172.997C221.756 174.453 222.394 176 223.648 177.024C224.879 178.048 226.839 178.481 228.48 177.57C230.6 176.41 231.215 173.543 230.372 171.631C229.506 169.72 227.637 168.536 225.836 167.444C222.485 165.373 215.534 160.367 215.534 160.367Z" fill="#C2B1FF"/>
<path d="M57.9669 154.065C57.7162 153.769 52.7017 160.027 48.9864 164.51C47.9607 165.761 46.8667 167.013 46.4564 168.56C46.0689 170.13 46.5476 172.064 48.0519 173.157C50.0349 174.568 52.884 173.862 54.2288 172.269C55.5736 170.676 55.8471 168.469 56.0523 166.376C56.4626 162.462 57.9669 154.065 57.9669 154.065Z" fill="#C2B1FF"/>
<path d="M119.827 120.34C119.44 120.317 120.671 128.259 121.469 134.016C121.697 135.609 121.879 137.27 122.768 138.613C123.657 139.955 125.412 140.911 127.235 140.524C129.606 140.024 131.019 137.452 130.768 135.381C130.495 133.311 129.059 131.627 127.645 130.057C125.024 127.144 119.827 120.34 119.827 120.34Z" fill="#C2B1FF"/>
<path d="M133.73 97.425C130.516 86.7299 134.482 77.0588 142.118 69.4811C147.907 63.724 155.679 58.7405 159.509 51.2994C162.837 44.8596 159.121 38.5335 152.899 35.7346C149.047 34.0051 144.739 33.8458 140.613 33.5045C137.308 33.2314 133.092 33.6866 134.117 28.9761C134.687 26.3592 136.032 23.401 139.086 23.1279C140.408 23.0142 140.431 20.9206 139.086 21.0572C135.895 21.3302 133.912 23.401 132.772 26.291C131.792 28.7486 130.676 32.9584 133.616 34.5058C135.257 35.3705 137.582 35.3477 139.382 35.507C142.642 35.8028 145.947 35.8711 149.115 36.6675C154.859 38.1011 160.671 42.8798 158.118 49.3652C156.249 54.0756 151.736 57.9213 148.067 61.2436C144.443 64.5204 140.636 67.6835 137.491 71.4609C131.2 78.993 128.898 88.5276 131.747 97.9939C132.089 99.2455 134.117 98.6994 133.73 97.425Z" fill="#4F3422"/>
<path d="M40.0485 99.8119C43.4903 99.5161 45.8152 97.4909 47.9577 94.9195C50.3966 92.0295 53.0178 88.6844 53.4509 84.816C54.2258 77.7162 47.1144 73.3244 40.8235 73.0513C33.9172 72.7783 23.592 75.2814 19.1929 81.1296C17.5518 83.3141 16.321 86.7047 18.0304 89.2306C19.3752 91.2331 22.042 91.802 23.9794 90.3456C25.0279 89.5492 24.0022 87.7287 22.931 88.5479C19.398 91.2103 19.4892 84.5429 20.3781 83.0866C21.1303 81.8805 22.2016 80.8337 23.3412 80.0145C24.8912 78.8995 26.6918 78.1258 28.4925 77.4887C33.3018 75.7592 39.2052 74.1664 44.2425 75.6682C49.4393 77.1929 52.8582 82.017 50.6017 87.3191C48.9378 91.2558 44.6983 97.3543 40.0485 97.7412C38.7266 97.855 38.7266 99.9257 40.0485 99.8119Z" fill="#4F3422"/>
</svg>
